<?xml version="1.0" encoding="UTF-8" standalone="no"?>
<!-- Created with Inkscape (http://www.inkscape.org/) -->

<svg
   version="1.1"
   id="svg2"
   xml:space="preserve"
   width="166.69516"
   height="166.75108"
   viewBox="0 0 166.69516 166.75108"
   sodipodi:docname="circle.svg"
   inkscape:version="1.1.2 (0a00cf5339, 2022-02-04)"
   xmlns:inkscape="http://www.inkscape.org/namespaces/inkscape"
   xmlns:sodipodi="http://sodipodi.sourceforge.net/DTD/sodipodi-0.dtd"
   xmlns:xlink="http://www.w3.org/1999/xlink"
   xmlns="http://www.w3.org/2000/svg"
   xmlns:svg="http://www.w3.org/2000/svg"><defs
     id="defs6"><pattern
       inkscape:collect="always"
       xlink:href="#pattern3931"
       id="pattern3985"
       patternTransform="matrix(0.12465206,-0.01134426,0.01737783,0.19094973,1599.3187,-597.0262)" /><clipPath
       clipPathUnits="userSpaceOnUse"
       id="clipPath14"><path
         d="M 0,0 V 1000 H 1000 V 0 Z"
         id="path12" /></clipPath><pattern
       patternTransform="matrix(12.5,0,0,12.5,18000,-6500)"
       patternUnits="userSpaceOnUse"
       x="0"
       y="0"
       width="100"
       height="100"
       id="pattern40"><g
         transform="scale(0.1)"
         id="g38"><g
           id="g36"><g
             clip-path="url(#clipPath14)"
             id="g34"><path
               d="M 500,1000 C 223.801,1000 0,776.102 0,500 l 0,500"
               style="fill:#ffffff;fill-opacity:1;fill-rule:nonzero;stroke:none"
               id="path16" /><path
               d="M 500,999.801 C 500.102,723.898 723.699,500.199 999.602,500 723.602,499.801 500,276 500,0 500,276 276.301,499.801 0.398438,500 276.199,500.199 499.898,723.898 500,999.801"
               style="fill:#ffffff;fill-opacity:1;fill-rule:nonzero;stroke:none"
               id="path18" /><path
               d="M 500,0 0,0 0,500 C 0,223.898 223.801,0 500,0"
               style="fill:#ffffff;fill-opacity:1;fill-rule:nonzero;stroke:none"
               id="path20" /><path
               d="M 1000,500 1000,0 500,0 c 276.102,0 500,223.898 500,500"
               style="fill:#ffffff;fill-opacity:1;fill-rule:nonzero;stroke:none"
               id="path22" /><path
               d="m 1000,1000 0,-500 c 0,276.102 -223.898,500 -500,500"
               style="fill:#ffffff;fill-opacity:1;fill-rule:nonzero;stroke:none"
               id="path24" /><path
               d="m 999.602,500 0.398,0 C 1000,223.898 776.102,0 500,0 c 0,276 223.602,499.801 499.602,500"
               style="fill:#cfa056;fill-opacity:1;fill-rule:nonzero;stroke:none"
               id="path26" /><path
               d="m 500,1000 c 276.102,0 500,-223.898 500,-500 l -0.398,0 C 723.699,500.199 500.102,723.898 500,999.801"
               style="fill:#cfa056;fill-opacity:1;fill-rule:nonzero;stroke:none"
               id="path28" /><path
               d="M 500,999.801 C 499.898,723.898 276.199,500.199 0.398438,500 L 0,500 c 0,276.102 223.801,500 500,500"
               style="fill:#cfa056;fill-opacity:1;fill-rule:nonzero;stroke:none"
               id="path30" /><path
               d="M 0.398438,500 C 276.301,499.801 500,276 500,0 223.801,0 0,223.898 0,500"
               style="fill:#cfa056;fill-opacity:1;fill-rule:nonzero;stroke:none"
               id="path32" /></g></g></g></pattern><pattern
       patternUnits="userSpaceOnUse"
       width="166.69516"
       height="166.75108"
       patternTransform="translate(-3.8783118e-5)"
       id="pattern3130"><g
         id="g3103"
         transform="matrix(1.3333333,0,0,-1.3333333,-1832.5747,865.64003)"><rect
           style="fill:#88a9ba;fill-opacity:1;stroke:none;stroke-width:0.525;stop-color:#000000"
           id="rect2114"
           width="124.99999"
           height="124.99999"
           x="1374.431"
           y="-649.23004"
           transform="scale(1,-1)" /><path
           d="m 1436.9524,649.16673 c -0.013,-34.48788 -27.9751,-62.45025 -62.4502,-62.47513 h -0.05 c 0,34.51276 27.9751,62.5 62.5,62.5"
           style="fill:#6492a9;fill-opacity:1;fill-rule:nonzero;stroke:none;stroke-width:0.125;stroke-opacity:1"
           id="path1989-0" /><path
           d="m 1436.9522,649.1916 c 0.013,-34.48788 27.9751,-62.45025 62.4502,-62.47513 h 0.05 c 0,34.51276 -27.9751,62.5 -62.5,62.5"
           style="fill:#6492a9;fill-opacity:1;fill-rule:nonzero;stroke:none;stroke-width:0.125;stroke-opacity:1"
           id="path2904" /><path
           d="m 1436.9524,524.21647 c -0.013,34.48788 -27.9751,62.45025 -62.4502,62.47513 h -0.05 c 0,-34.51276 27.9751,-62.5 62.5,-62.5"
           style="fill:#6492a9;fill-opacity:1;fill-rule:nonzero;stroke:none;stroke-width:0.125;stroke-opacity:1"
           id="path2906" /><path
           d="m 1436.9522,524.1916 c 0.013,34.48788 27.9751,62.45025 62.4502,62.47513 h 0.05 c 0,-34.51276 -27.9751,-62.5 -62.5,-62.5"
           style="fill:#6492a9;fill-opacity:1;fill-rule:nonzero;stroke:none;stroke-width:0.125;stroke-opacity:1"
           id="path2908" /></g></pattern><pattern
       patternUnits="userSpaceOnUse"
       width="166.69521"
       height="166.75109"
       patternTransform="translate(-3.8783118e-5)"
       id="pattern3931"><rect
         style="fill:none;stroke:none"
         width="166.69516"
         height="166.75108"
         x="5.4185632e-05"
         y="-6.1625645e-15"
         id="rect3138" /><g
         id="g3701"
         transform="matrix(1.3333333,0,0,-1.3333333,-1832.5747,865.64004)"><rect
           style="fill:#88a9ba;fill-opacity:1;stroke:none;stroke-width:0.525;stop-color:#000000"
           id="rect3691"
           width="125.02141"
           height="125.06332"
           x="1374.431"
           y="-649.23004"
           transform="scale(1,-1)" /><path
           d="m 1436.9524,649.16673 c -0.013,-34.48788 -27.9751,-62.45025 -62.4502,-62.47513 h -0.05 c 0,34.51276 27.9751,62.5 62.5,62.5"
           style="fill:#6492a9;fill-opacity:1;fill-rule:nonzero;stroke:none;stroke-width:0.125;stroke-opacity:1"
           id="path3693" /><path
           d="m 1436.9522,649.1916 c 0.013,-34.48788 27.9751,-62.45025 62.4502,-62.47513 h 0.05 c 0,34.51276 -27.9751,62.5 -62.5,62.5"
           style="fill:#6492a9;fill-opacity:1;fill-rule:nonzero;stroke:none;stroke-width:0.125;stroke-opacity:1"
           id="path3695" /><path
           d="m 1436.9524,524.21647 c -0.013,34.48788 -27.9751,62.45025 -62.4502,62.47513 h -0.05 c 0,-34.51276 27.9753,-62.52487 62.5002,-62.52487"
           style="fill:#6492a9;fill-opacity:1;fill-rule:nonzero;stroke:none;stroke-width:0.125;stroke-opacity:1"
           id="path3697"
           sodipodi:nodetypes="cccc" /><path
           d="m 1436.9522,524.1916 c 0.013,34.48788 27.9751,62.45025 62.4502,62.47513 h 0.05 c 0,-34.51276 -27.9751,-62.5 -62.5,-62.5"
           style="fill:#6492a9;fill-opacity:1;fill-rule:nonzero;stroke:none;stroke-width:0.125;stroke-opacity:1"
           id="path3699" /></g></pattern></defs><sodipodi:namedview
     id="namedview4"
     pagecolor="#ffffff"
     bordercolor="#666666"
     borderopacity="1.0"
     inkscape:pageshadow="2"
     inkscape:pageopacity="0.0"
     inkscape:pagecheckerboard="0"
     showgrid="false"
     inkscape:zoom="2"
     inkscape:cx="198.5"
     inkscape:cy="-13"
     inkscape:window-width="1920"
     inkscape:window-height="1051"
     inkscape:window-x="0"
     inkscape:window-y="0"
     inkscape:window-maximized="1"
     inkscape:current-layer="g8"
     fit-margin-top="0"
     fit-margin-left="0"
     fit-margin-right="0"
     fit-margin-bottom="0" /><g
     id="g8"
     inkscape:groupmode="layer"
     inkscape:label="ink_ext_XXXXXX"
     transform="matrix(1.3333333,0,0,-1.3333333,-1832.5747,865.64003)"><rect
       style="stroke:none;fill:url(#pattern3931)"
       transform="matrix(0.75000002,0,0,-0.75000002,1374.4311,649.23004)"
       width="166.69521"
       height="166.75109"
       x="-3.8783118e-05"
       y="-5.3898723e-06"
       id="rect3940" /><rect
       style="vector-effect:non-scaling-stroke;fill:none;stroke-width:0.0005625;-inkscape-stroke:hairline;stop-color:#000000"
       id="rect3588"
       width="318.03857"
       height="293.41217"
       x="1546.7097"
       y="-699.63428"
       transform="scale(1,-1)" /><rect
       style="vector-effect:non-scaling-stroke;fill:url(#pattern3985);fill-opacity:1;stroke-width:0.0005625;-inkscape-stroke:hairline;stop-color:#000000"
       id="rect3964"
       width="100.4361"
       height="146.20345"
       x="1527.8192"
       y="-664.69775"
       transform="scale(1,-1)" /></g></svg>
