<?xml version="1.0" encoding="UTF-8" standalone="no"?>
<!-- Created with Inkscape (http://www.inkscape.org/) -->

<svg
   width="72.810394"
   height="72.810486"
   viewBox="0 0 19.264417 19.264441"
   version="1.1"
   id="svg219"
   inkscape:version="1.1.2 (0a00cf5339, 2022-02-04)"
   sodipodi:docname="geometric.svg"
   xmlns:inkscape="http://www.inkscape.org/namespaces/inkscape"
   xmlns:sodipodi="http://sodipodi.sourceforge.net/DTD/sodipodi-0.dtd"
   xmlns:xlink="http://www.w3.org/1999/xlink"
   xmlns="http://www.w3.org/2000/svg"
   xmlns:svg="http://www.w3.org/2000/svg"
   xmlns:rdf="http://www.w3.org/1999/02/22-rdf-syntax-ns#"
   xmlns:cc="http://creativecommons.org/ns#"
   xmlns:dc="http://purl.org/dc/elements/1.1/">
  <defs
     id="defs213">
    <pattern
       inkscape:collect="always"
       xlink:href="#pattern16006"
       id="pattern17159"
       patternTransform="matrix(1.0041103,0,0,0.99874147,0.03713159,0.44650556)" />
    <pattern
       patternUnits="userSpaceOnUse"
       width="72.810393"
       height="72.810613"
       patternTransform="translate(0.03713159,0.44650556)"
       id="pattern16006">
      <g
         id="g16004"
         transform="matrix(3.7795275,0,0,3.7795275,-12.669927,-1064.409)">
        <rect
           style="fill:#88a9ba;fill-opacity:1;stroke:none;stroke-width:0.614224;stop-color:#000000"
           id="rect7014"
           width="19.199535"
           height="19.264475"
           x="3.3522515"
           y="281.62488" />
        <path
           style="opacity:1;fill:#6492a9;fill-opacity:1;fill-rule:nonzero;stroke:none;stroke-width:0.0321074;stroke-linecap:round;stroke-linejoin:round;stroke-miterlimit:4;stroke-dasharray:none;stroke-dashoffset:0;stroke-opacity:1"
           d="m 3.3522515,281.62488 v 0.73782 l 0.3850661,-0.38503 0.3527507,-0.35279 z m 1.6376215,0 0.3527919,0.35279 0.8026942,0.80265 0.8026944,-0.80265 0.3527509,-0.35279 H 6.49811 l -0.3527509,0.35279 -0.3527918,-0.35279 z m 1.1554861,1.15544 0.8026944,0.8027 0.8026531,0.80269 0.802695,-0.80269 0.8026941,-0.8027 H 8.5534016 l -0.802695,0.8027 -0.8026531,-0.8027 z m 0,0 H 5.3426649 l -0.8026942,0.8027 -0.8026531,-0.8027 H 3.3522515 v 0.41767 l 0.3850661,0.38503 0.8026531,0.80269 0.8026942,-0.80269 z m -1.6053884,1.60539 0.8026942,0.8027 0.8026942,0.80265 0.8026944,-0.80265 0.8026531,-0.8027 H 6.9480535 l -0.8026944,0.8027 -0.8026942,-0.8027 z m 0,0 H 3.7373176 l -0.3850661,0.38502 v 0.8027 l 0.3850661,-0.38502 z m -0.8026531,0 -0.3850661,-0.38506 v 0.38506 z m 1.6053473,0 h 0.8026942 0.8026944 l -0.8026944,-0.80269 z m 2.4080417,0 0.802695,0.8027 0.8026941,0.80265 0.8026933,-0.80265 0.802654,-0.8027 h -0.802654 l -0.8026933,0.8027 -0.8026941,-0.8027 z m 0.802695,0 h 0.8026941 0.8026933 l -0.8026933,-0.80269 z m 2.4080414,0 0.802694,-0.80269 0.802694,-0.8027 h -0.802694 l -0.802694,0.8027 -0.802654,-0.8027 H 9.3560957 l 0.8026933,0.8027 z m 0,0 0.802694,0.8027 0.802694,0.80265 0.802694,-0.80265 0.802653,-0.8027 h -0.802653 l -0.802694,0.8027 -0.802694,-0.8027 z m 0.802694,0 h 0.802694 0.802694 l -0.802694,-0.80269 z m 2.408041,0 0.802694,-0.80269 0.802694,-0.8027 h -0.802694 l -0.802694,0.8027 -0.802653,-0.8027 h -0.802694 l 0.802694,0.8027 z m 0,0 0.802694,0.8027 0.802694,0.80265 0.802696,-0.80265 0.802652,-0.8027 h -0.802652 l -0.802696,0.8027 -0.802694,-0.8027 z m 0.802694,0 h 0.802694 0.802696 l -0.802696,-0.80269 z m 2.408042,0 0.802695,-0.80269 0.802694,-0.8027 h -0.802694 l -0.802695,0.8027 -0.802652,-0.8027 h -0.802696 l 0.802696,0.8027 z m 0,0 0.802695,0.8027 0.802694,0.80265 0.802695,-0.80265 0.802653,-0.8027 h -0.802653 l -0.802695,0.8027 -0.802694,-0.8027 z m 0.802695,0 h 0.802694 0.802695 l -0.802695,-0.80269 z m 2.408042,0 0.802694,-0.80269 0.802694,-0.8027 h -0.802694 l -0.802694,0.8027 -0.802653,-0.8027 h -0.802695 l 0.802695,0.8027 z m 0,0 0.802694,0.8027 0.802694,0.80265 0.417629,-0.41763 v -0.8027 l -0.417629,0.41768 -0.802694,-0.8027 z m 0.802694,0 h 0.802694 0.417629 v -0.38506 l -0.417629,-0.41763 z m 0.802694,1.60535 0.417629,0.41768 v -0.41768 z m 0,0 h -0.802694 l -0.802694,0.8027 -0.802653,-0.8027 h -0.802695 l 0.802695,0.8027 0.802653,0.80268 0.802694,-0.80268 z m -1.605388,1.60538 0.802694,0.80271 0.802694,0.80265 0.417629,-0.41763 v -0.80269 l -0.417629,0.41767 -0.802694,-0.80271 z m 0,0 h -0.802653 l -0.802695,0.80271 -0.802694,-0.80271 h -0.802695 l 0.802695,0.80271 0.802694,0.80265 0.802695,-0.80265 z m -1.605348,1.60536 0.802695,0.80269 0.802653,0.8027 0.802694,-0.8027 0.802694,-0.80269 h -0.802694 l -0.802694,0.80269 -0.802653,-0.80269 z m 0,0 h -0.802694 l -0.802695,0.80269 -0.802652,-0.80269 h -0.802696 l 0.802696,0.80269 0.802652,0.8027 0.802695,-0.8027 z m -1.605389,1.60539 0.802695,0.80269 0.802694,0.80266 0.802695,-0.80266 0.802653,-0.80269 h -0.802653 l -0.802695,0.80269 -0.802694,-0.80269 z m 0,0 h -0.802652 l -0.802696,0.80269 -0.802694,-0.80269 h -0.802694 l 0.802694,0.80269 0.802694,0.80266 0.802696,-0.80266 z m -1.605348,1.60535 0.802696,0.80268 0.802652,0.8027 0.802695,-0.8027 0.802694,-0.80268 h -0.802694 l -0.802695,0.80268 -0.802652,-0.80268 z m 0,0 h -0.802694 l -0.802694,0.80268 -0.802653,-0.80268 h -0.802694 l 0.802694,0.80268 0.802653,0.8027 0.802694,-0.8027 z m -1.605388,1.60538 0.802694,0.80269 0.802694,0.80266 0.802696,-0.80266 0.802652,-0.80269 h -0.802652 l -0.802696,0.80269 -0.802694,-0.80269 z m 0,0 h -0.802653 l -0.802694,0.80269 -0.802694,-0.80269 h -0.802694 l 0.802694,0.80269 0.802694,0.80266 0.802694,-0.80266 z m -1.605347,1.60535 0.802694,0.8027 0.802653,0.80269 0.802694,-0.80269 0.802694,-0.8027 h -0.802694 l -0.802694,0.8027 -0.802653,-0.8027 z m 0,0 h -0.802694 l -0.802694,0.8027 -0.802654,-0.8027 H 9.3560957 l 0.8026933,0.8027 0.802654,0.80269 0.802694,-0.80269 z m -1.605388,1.60539 0.802694,0.8027 0.802694,0.80264 0.802694,-0.80264 0.802653,-0.8027 h -0.802653 l -0.802694,0.8027 -0.802694,-0.8027 z m 0,0 h -0.802654 l -0.8026933,0.8027 -0.8026941,-0.8027 h -0.802695 l 0.802695,0.8027 0.8026941,0.80264 0.8026933,-0.80264 z m -1.6053473,1.60534 0.8026933,0.8027 0.802654,0.80269 0.802694,-0.80269 0.802694,-0.8027 h -0.802694 l -0.802694,0.8027 -0.802654,-0.8027 z m 0,0 H 8.5534016 l -0.802695,0.8027 -0.8026531,-0.8027 H 6.1453591 l 0.8026944,0.8027 0.8026531,0.80269 0.802695,-0.80269 z m -1.6053891,1.60539 0.4499018,0.4499 h 0.8026945 l -0.4499013,-0.4499 z m 0,0 H 6.9480535 l -0.4499435,0.4499 h 0.8026944 z m -0.8026531,0 -0.8026944,-0.80269 -0.8026942,0.80269 h 0.8026942 z m -1.6053886,0 H 4.5399707 l 0.4499023,0.4499 h 0.8026943 z m -0.8026942,0 H 3.7373176 l -0.3850661,0.38503 v 0.0649 h 0.7378168 z m 0,0 0.8026942,-0.80269 0.8026942,-0.8027 H 5.3426649 L 4.5399707,299.6367 3.7373176,298.834 H 3.3522515 v 0.41768 l 0.3850661,0.38502 z M 3.7373176,298.834 h 0.8026531 0.8026942 l -0.8026942,-0.80264 z m 2.4080415,0 0.8026944,-0.80264 0.8026531,-0.8027 H 6.9480535 l -0.8026944,0.8027 -0.8026942,-0.8027 H 4.5399707 l 0.8026942,0.8027 z M 4.5399707,297.22866 H 3.7373176 l -0.3850661,0.38502 v 0.8027 l 0.3850661,-0.38502 z m 0,0 0.8026942,-0.80269 0.8026942,-0.8027 H 5.3426649 l -0.8026942,0.8027 -0.8026531,-0.8027 H 3.3522515 v 0.41766 l 0.3850661,0.38504 z m -0.8026531,-1.60539 h 0.8026531 0.8026942 l -0.8026942,-0.80266 z m 2.4080415,0 0.8026944,-0.80266 0.8026531,-0.80269 H 6.9480535 l -0.8026944,0.80269 -0.8026942,-0.80269 H 4.5399707 l 0.8026942,0.80269 z m 0,0 0.8026944,0.8027 0.8026531,0.80269 0.802695,-0.80269 0.8026941,-0.8027 H 8.5534016 l -0.802695,0.8027 -0.8026531,-0.8027 z m 0.8026944,0 h 0.8026531 0.802695 l -0.802695,-0.80266 z m 2.4080422,0 0.8026933,-0.80266 0.802654,-0.80269 h -0.802654 l -0.8026933,0.80269 -0.8026941,-0.80269 h -0.802695 l 0.802695,0.80269 z m -1.6053891,-1.60535 0.802695,-0.8027 0.8026941,-0.80268 H 8.5534016 l -0.802695,0.80268 -0.8026531,-0.80268 H 6.1453591 l 0.8026944,0.80268 z M 6.1453591,292.41254 H 5.3426649 l -0.8026942,0.80268 -0.8026531,-0.80268 H 3.3522515 v 0.41766 l 0.3850661,0.38502 0.8026531,0.8027 0.8026942,-0.8027 z m 0,0 0.8026944,-0.80266 0.8026531,-0.80269 H 6.9480535 l -0.8026944,0.80269 -0.8026942,-0.80269 H 4.5399707 l 0.8026942,0.80269 z M 4.5399707,290.80719 H 3.7373176 l -0.3850661,0.38502 v 0.80269 l 0.3850661,-0.38502 z m 0,0 0.8026942,-0.8027 0.8026942,-0.80269 H 5.3426649 L 4.5399707,290.00449 3.7373176,289.2018 H 3.3522515 v 0.41767 l 0.3850661,0.38502 z M 3.7373176,289.2018 h 0.8026531 0.8026942 l -0.8026942,-0.80265 z m 2.4080415,0 0.8026944,-0.80265 0.8026531,-0.80271 H 6.9480535 l -0.8026944,0.80271 -0.8026942,-0.80271 H 4.5399707 l 0.8026942,0.80271 z m 0,0 0.8026944,0.80269 0.8026531,0.8027 0.802695,-0.8027 0.8026941,-0.80269 H 8.5534016 l -0.802695,0.80269 -0.8026531,-0.80269 z m 0.8026944,0 h 0.8026531 0.802695 l -0.802695,-0.80265 z m 2.4080422,0 0.8026933,-0.80265 0.802654,-0.80271 h -0.802654 l -0.8026933,0.80271 -0.8026941,-0.80271 h -0.802695 l 0.802695,0.80271 z m 0,0 0.8026933,0.80269 0.802654,0.8027 0.802694,-0.8027 0.802694,-0.80269 h -0.802694 l -0.802694,0.80269 -0.802654,-0.80269 z m 0.8026933,0 h 0.802654 0.802694 l -0.802694,-0.80265 z m 2.408042,0 0.802694,-0.80265 0.802653,-0.80271 h -0.802653 l -0.802694,0.80271 -0.802694,-0.80271 h -0.802694 l 0.802694,0.80271 z m 0,0 0.802694,0.80269 0.802653,0.8027 0.802694,-0.8027 0.802694,-0.80269 h -0.802694 l -0.802694,0.80269 -0.802653,-0.80269 z m 0.802694,0 h 0.802653 0.802694 l -0.802694,-0.80265 z m 2.408041,0 0.802696,-0.80265 0.802652,-0.80271 h -0.802652 l -0.802696,0.80271 -0.802694,-0.80271 h -0.802694 l 0.802694,0.80271 z m -1.605388,-1.60536 0.802694,-0.80268 0.802694,-0.8027 h -0.802694 l -0.802694,0.8027 -0.802653,-0.8027 h -0.802694 l 0.802694,0.8027 z m -1.605347,-1.60538 h -0.802694 l -0.802694,0.8027 -0.802654,-0.8027 H 9.3560957 l 0.8026933,0.8027 0.802654,0.80268 0.802694,-0.80268 z m -3.2107353,0 H 8.5534016 l -0.802695,0.8027 -0.8026531,-0.8027 H 6.1453591 l 0.8026944,0.8027 0.8026531,0.80268 0.802695,-0.80268 z m -3.2107366,0 H 5.3426649 l -0.8026942,0.8027 -0.8026531,-0.8027 H 3.3522515 v 0.41768 l 0.3850661,0.38502 0.8026531,0.80268 0.8026942,-0.80268 z m -1.6053884,1.60538 H 3.7373176 l -0.3850661,0.38504 v 0.80269 l 0.3850661,-0.38502 z m -0.8026531,0 -0.3850661,-0.38506 v 0.38506 z m 0,-1.60538 h 0.8026531 0.8026942 l -0.8026942,-0.80265 z m 3.2107359,0 h 0.8026531 0.802695 l -0.802695,-0.80265 z m 3.2107355,0 h 0.802654 0.802694 l -0.802694,-0.80265 z m 3.210736,0 h 0.802653 0.802694 l -0.802694,-0.80265 z m 2.408041,0 0.802696,0.8027 0.802652,0.80268 0.802695,-0.80268 0.802694,-0.8027 h -0.802694 l -0.802695,0.8027 -0.802652,-0.8027 z m 0.802696,0 h 0.802652 0.802695 l -0.802695,-0.80265 z m -1.60539,1.60538 h 0.802694 0.802696 l -0.802696,-0.80268 z m -0.802694,3.21075 h -0.802653 l -0.802694,0.80269 -0.802694,-0.80269 h -0.802694 l 0.802694,0.80269 0.802694,0.80266 0.802694,-0.80266 z m -1.605347,1.60535 h -0.802694 l -0.802694,0.80268 -0.802654,-0.80268 H 9.3560957 l 0.8026933,0.80268 0.802654,0.8027 0.802694,-0.8027 z m -3.2107353,0 0.8026933,-0.80266 0.802654,-0.80269 h -0.802654 l -0.8026933,0.80269 -0.8026941,-0.80269 h -0.802695 l 0.802695,0.80269 z m -0.8026941,-1.60535 h 0.8026941 0.8026933 l -0.8026933,-0.8027 z m 1.6053874,1.60535 h 0.802654 0.802694 l -0.802694,-0.80266 z m 1.605348,-1.60535 h 0.802694 0.802694 l -0.802694,-0.8027 z m 0,-3.21075 h 0.802694 0.802694 l -0.802694,-0.80268 z m -3.2107354,0 h 0.8026941 0.8026933 l -0.8026933,-0.80268 z m -3.2107367,0 h 0.8026942 0.8026944 l -0.8026944,-0.80268 z m -1.6053473,3.21075 -0.3850661,-0.38506 v 0.38506 z m 1.6053473,0 h 0.8026942 0.8026944 l -0.8026944,-0.8027 z m -0.8026942,3.21073 H 3.7373176 l -0.3850661,0.38502 v 0.80271 l 0.3850661,-0.38504 z m -0.8026531,0 -0.3850661,-0.38506 v 0.38506 z m 0,-1.60538 h 0.8026531 0.8026942 l -0.8026942,-0.80266 z m 3.2107359,0 h 0.8026531 0.802695 l -0.802695,-0.80266 z m 1.6053481,1.60538 h 0.8026941 0.8026933 l -0.8026933,-0.8027 z m -3.2107367,0 h 0.8026942 0.8026944 l -0.8026944,-0.8027 z m -1.6053473,3.21074 -0.3850661,-0.38507 v 0.38507 z m 1.6053473,0 h 0.8026942 0.8026944 l -0.8026944,-0.80269 z m -1.6053473,3.21073 -0.3850661,-0.38502 v 0.38502 z m 4.816084,0 H 9.3560957 10.158789 L 9.3560957,299.6367 Z m 1.6053874,0 -0.4499429,0.4499 H 10.51154 l 0.449903,-0.4499 z m 0.802654,0 0.449902,0.4499 h 0.802695 l -0.449903,-0.4499 z m 0.802694,0 h 0.802694 0.802694 l -0.802694,-0.80269 z m 1.605388,0 -0.449944,0.4499 h 0.802696 l 0.449901,-0.4499 z m 0.802653,0 0.802694,-0.80269 0.802694,-0.8027 h -0.802694 l -0.802694,0.8027 -0.802653,-0.8027 h -0.802694 l 0.802694,0.8027 z m 0,0 0.449903,0.4499 h 0.802694 l -0.449903,-0.4499 z m 0.802694,0 h 0.802694 0.802696 l -0.802696,-0.80269 z m 1.60539,0 -0.449944,0.4499 h 0.802694 l 0.449902,-0.4499 z m 0.802652,0 0.802695,-0.80269 0.802694,-0.8027 h -0.802694 l -0.802695,0.8027 -0.802652,-0.8027 h -0.802696 l 0.802696,0.8027 z m 0,0 0.449903,0.4499 h 0.802695 l -0.449903,-0.4499 z m 0.802695,0 h 0.802694 0.802695 l -0.802695,-0.80269 z m 1.605389,0 -0.449944,0.4499 h 0.802694 l 0.449903,-0.4499 z m 0.802653,0 0.802694,-0.80269 0.802694,-0.8027 h -0.802694 l -0.802694,0.8027 -0.802653,-0.8027 h -0.802695 l 0.802695,0.8027 z m 0,0 0.449903,0.4499 h 0.802694 l -0.449903,-0.4499 z m 0.802694,0 h 0.802694 0.417629 v -0.38502 l -0.417629,-0.41767 z m -2.408042,-1.60539 0.802695,-0.80264 0.802653,-0.8027 h -0.802653 l -0.802695,0.8027 -0.802694,-0.8027 h -0.802695 l 0.802695,0.8027 z m -1.605389,-1.60534 h -0.802652 l -0.802696,0.8027 -0.802694,-0.8027 h -0.802694 l 0.802694,0.8027 0.802694,0.80264 0.802696,-0.80264 z m 0,0 0.802695,-0.80269 0.802694,-0.8027 h -0.802694 l -0.802695,0.8027 -0.802652,-0.8027 h -0.802696 l 0.802696,0.8027 z m -0.802652,-1.60539 h 0.802652 0.802695 l -0.802695,-0.80266 z m 2.408041,0 0.802695,-0.80266 0.802653,-0.80269 h -0.802653 l -0.802695,0.80269 -0.802694,-0.80269 h -0.802695 l 0.802695,0.80269 z m 0,0 0.802695,0.8027 0.802653,0.80269 0.802694,-0.80269 0.802694,-0.8027 h -0.802694 l -0.802694,0.8027 -0.802653,-0.8027 z m 0.802695,0 h 0.802653 0.802694 l -0.802694,-0.80266 z m 2.408041,0 0.417629,-0.41762 v -0.80271 l -0.417629,0.41767 -0.802694,-0.80269 h -0.802694 l 0.802694,0.80269 z m 0,0 0.417629,0.41766 v -0.41766 z m -1.605388,-1.60535 0.802694,-0.8027 0.802694,-0.80268 h -0.802694 l -0.802694,0.80268 -0.802653,-0.80268 h -0.802695 l 0.802695,0.80268 z m -0.802653,-1.60538 h 0.802653 0.802694 l -0.802694,-0.80266 z m 2.408041,0 0.417629,-0.41764 v -0.80269 l -0.417629,0.41767 -0.802694,-0.80269 h -0.802694 l 0.802694,0.80269 z m 0,0 0.417629,0.41766 v -0.41766 z m -0.802694,-1.60535 h 0.802694 0.417629 v -0.38506 l -0.417629,-0.41764 z m 0,3.21073 h 0.802694 0.417629 v -0.38506 l -0.417629,-0.41764 z m -0.802694,3.21074 0.802694,0.8027 0.802694,0.80264 0.417629,-0.41762 v -0.8027 l -0.417629,0.41768 -0.802694,-0.8027 z m 0.802694,0 h 0.802694 0.417629 v -0.38507 l -0.417629,-0.41762 z m 0.802694,1.60534 0.417629,0.41768 V 298.834 Z m -4.01343,-4.81608 h 0.802694 0.802695 l -0.802695,-0.8027 z m -3.210737,3.21074 h 0.802694 0.802696 l -0.802696,-0.80269 z m 3.210737,0 h 0.802694 0.802695 l -0.802695,-0.80269 z m 1.605389,1.60534 h 0.802653 0.802694 l -0.802694,-0.80264 z m -3.210736,0 h 0.802652 0.802695 l -0.802695,-0.80264 z m -3.210737,0 h 0.802653 0.802694 l -0.802694,-0.80264 z m -6.4214715,0 h 0.8026531 0.802695 l -0.802695,-0.80264 z m 3.2107355,0 h 0.802654 0.802694 l -0.802694,-0.80264 z m -1.6053874,-1.60534 h 0.8026941 0.8026933 l -0.8026933,-0.80269 z m 3.2107354,0 h 0.802694 0.802694 l -0.802694,-0.80269 z m -1.605348,-1.60539 h 0.802654 0.802694 l -0.802694,-0.80266 z m 3.210736,0 h 0.802653 0.802694 l -0.802694,-0.80266 z m -1.605388,-1.60535 h 0.802694 0.802694 l -0.802694,-0.8027 z m 3.210735,0 h 0.802694 0.802696 l -0.802696,-0.8027 z m -1.605347,-1.60538 h 0.802653 0.802694 l -0.802694,-0.80266 z m 3.210737,0 h 0.802652 0.802695 l -0.802695,-0.80266 z m -1.60539,-1.60535 h 0.802694 0.802696 l -0.802696,-0.8027 z m 3.210737,0 h 0.802694 0.802695 l -0.802695,-0.8027 z m -1.605347,-1.60539 h 0.802652 0.802695 l -0.802695,-0.80265 z m 3.210736,0 h 0.802653 0.802694 l -0.802694,-0.80265 z m 2.408041,0 0.417629,0.41767 v -0.41767 z m -4.01343,-1.60536 h 0.802694 0.802695 l -0.802695,-0.80268 z m 3.210736,0 h 0.802694 0.417629 v -0.38506 l -0.417629,-0.41762 z m -1.605347,-1.60538 h 0.802653 0.802694 l -0.802694,-0.80265 z m -0.802695,-3.21074 0.802695,-0.80265 0.35275,-0.35279 h -0.802694 l -0.352751,0.35279 -0.352791,-0.35279 h -0.802695 l 0.352792,0.35279 z m 0.802695,0 h 0.802653 0.802694 l -0.802694,-0.80265 z m 2.408041,0 0.417629,-0.41762 v -0.73782 h -0.06488 l -0.352751,0.35279 -0.352791,-0.35279 h -0.802692 l 0.352791,0.35279 z m 0,0 0.417629,0.41767 v -0.41767 z m -6.421473,0 0.802696,-0.80265 0.35275,-0.35279 h -0.802694 l -0.352752,0.35279 -0.352791,-0.35279 h -0.802694 l 0.352791,0.35279 z m 0.802696,0 h 0.802652 0.802695 l -0.802695,-0.80265 z m -4.013431,0 0.802694,-0.80265 0.352752,-0.35279 h -0.802696 l -0.35275,0.35279 -0.352791,-0.35279 h -0.802695 l 0.352792,0.35279 z m 0.802694,0 h 0.802653 0.802694 l -0.802694,-0.80265 z m -4.0134293,0 0.8026933,-0.80265 0.352751,-0.35279 H 9.7088461 l -0.3527504,0.35279 -0.3527928,-0.35279 H 8.2006084 l 0.3527932,0.35279 z m 0.8026933,0 h 0.802654 0.802694 l -0.802694,-0.80265 z m -6.4214714,0 h 0.8026531 0.8026942 l -0.8026942,-0.80265 z m 3.2107359,0 h 0.8026531 0.802695 l -0.802695,-0.80265 z m 15.6686145,18.0441 -0.06488,0.0649 h 0.06488 z"
           id="rect25380"
           inkscape:connector-curvature="0" />
      </g>
    </pattern>
  </defs>
  <sodipodi:namedview
     id="base"
     pagecolor="#ffffff"
     bordercolor="#666666"
     borderopacity="1.0"
     inkscape:pageopacity="0.0"
     inkscape:pageshadow="2"
     inkscape:zoom="1.979899"
     inkscape:cx="30.052038"
     inkscape:cy="121.97592"
     inkscape:document-units="px"
     inkscape:current-layer="layer1"
     showgrid="false"
     units="px"
     inkscape:window-width="1369"
     inkscape:window-height="808"
     inkscape:window-x="418"
     inkscape:window-y="36"
     inkscape:window-maximized="0"
     inkscape:snap-global="true"
     inkscape:pagecheckerboard="0"
     fit-margin-top="0"
     fit-margin-left="0"
     fit-margin-right="0"
     fit-margin-bottom="0" />
  <metadata
     id="metadata216">
    <rdf:RDF>
      <cc:Work
         rdf:about="">
        <dc:format>image/svg+xml</dc:format>
        <dc:type
           rdf:resource="http://purl.org/dc/dcmitype/StillImage" />
      </cc:Work>
    </rdf:RDF>
  </metadata>
  <g
     inkscape:label="Layer 1"
     inkscape:groupmode="layer"
     id="layer1"
     transform="translate(-3.3424271,-281.50674)">
    <rect
       style="fill:url(#pattern17159);stroke:none"
       transform="matrix(0.26458333,0,0,0.26458333,3.3424271,281.50674)"
       width="72.810394"
       height="72.810616"
       x="0.037131589"
       y="0.44650555"
       id="rect16011" />
  </g>
</svg>
