<?xml version="1.0" encoding="UTF-8" standalone="no"?>
<!-- Created with Inkscape (http://www.inkscape.org/) -->

<svg
   version="1.1"
   id="svg2"
   xml:space="preserve"
   width="2133.3333"
   height="1600"
   viewBox="0 0 2133.3333 1600"
   sodipodi:docname="kikko.svg"
   inkscape:version="1.1.2 (0a00cf5339, 2022-02-04)"
   xmlns:inkscape="http://www.inkscape.org/namespaces/inkscape"
   xmlns:sodipodi="http://sodipodi.sourceforge.net/DTD/sodipodi-0.dtd"
   xmlns="http://www.w3.org/2000/svg"
   xmlns:svg="http://www.w3.org/2000/svg"><defs
     id="defs6"><clipPath
       clipPathUnits="userSpaceOnUse"
       id="clipPath14"><path
         d="M 0,479 H 839 V 0 H 0 Z"
         id="path12" /></clipPath><pattern
       patternTransform="matrix(50.0062,0,0,50.0047,293509,-289525)"
       patternUnits="userSpaceOnUse"
       x="0"
       y="0"
       width="83.8496"
       height="47.8554"
       id="pattern44"><g
         transform="scale(0.1)"
         id="g42"><g
           id="g40"><g
             clip-path="url(#clipPath14)"
             id="g38"><path
               d="m -228.613,318.539 70,-40.418 158.390344,91.449 158.839656,-91.699 70,40.418 -228.839656,132.109"
               style="fill:#6f6f88;fill-opacity:1;fill-rule:nonzero;stroke:none"
               id="path16" /><path
               d="m 260.027,371.063 0,80.832 -160.2497,92.519 0,184.531 -70,40.41 0,-265.363"
               style="fill:#6f6f88;fill-opacity:1;fill-rule:nonzero;stroke:none"
               id="path18" /><path
               d="m 260.027,-106.648 0,80.8277 -160.2497,92.5195 0,184.5308 -70,40.411 0,-265.3597"
               style="fill:#6f6f88;fill-opacity:1;fill-rule:nonzero;stroke:none"
               id="path20" /><path
               d="m 808.273,768.848 -70,-40.41 0,-184.532 -159.367,-92.008 0,-80.832 229.367,132.422"
               style="fill:#6f6f88;fill-opacity:1;fill-rule:nonzero;stroke:none"
               id="path22" /><path
               d="m 609.883,318.539 70,-40.418 158.39,91.449 158.84,-91.699 69.997,40.418 -228.837,132.109"
               style="fill:#6f6f88;fill-opacity:1;fill-rule:nonzero;stroke:none"
               id="path24" /><path
               d="m 808.273,291.133 -70,-40.41 0,-184.5316 -159.367,-92.0078 0,-80.8316 229.367,132.4214"
               style="fill:#6f6f88;fill-opacity:1;fill-rule:nonzero;stroke:none"
               id="path26" /><path
               d="m 387.98,525.957 -70,-40.422 0,-184.519 -159.371,-92.008 0,-80.832 229.371,132.422"
               style="fill:#6f6f88;fill-opacity:1;fill-rule:nonzero;stroke:none"
               id="path28" /><path
               d="m 189.59,75.6484 70,-40.4101 158.387,91.4417 158.839,-91.7034 70,40.4218 -228.839,132.1096"
               style="fill:#6f6f88;fill-opacity:1;fill-rule:nonzero;stroke:none"
               id="path30" /><path
               d="m 678.23,128.172 0,80.832 -160.25,92.519 0,184.528 -70,40.41 0,-265.359"
               style="fill:#6f6f88;fill-opacity:1;fill-rule:nonzero;stroke:none"
               id="path32" /><path
               d="m 387.98,48.2422 -70,-40.41017 0,-184.53103 -159.371,-92.008 0,-80.832 229.371,132.422"
               style="fill:#6f6f88;fill-opacity:1;fill-rule:nonzero;stroke:none"
               id="path34" /><path
               d="m 678.23,-349.543 0,80.832 -160.25,92.52 0,184.53084 -70,40.40626 0,-265.3591"
               style="fill:#6f6f88;fill-opacity:1;fill-rule:nonzero;stroke:none"
               id="path36" /></g></g></g></pattern><pattern
       patternUnits="userSpaceOnUse"
       width="559.45851"
       height="319.38397"
       patternTransform="translate(792.00682,407.04903)"
       id="pattern3302"><g
         id="g3300"
         transform="matrix(0.13333333,0,0,-0.13333333,-792.00682,1192.951)"><rect
           style="fill:#88a9ba;fill-opacity:1;stroke:none;stroke-width:7.35161;stop-color:#000000"
           id="rect2105"
           width="4195.939"
           height="2395.2776"
           x="5940.0513"
           y="-8947.0303"
           transform="scale(1,-1)" /><g
           transform="matrix(5.00062,0,0,5.00047,5940.2977,6551.9074)"
           id="g2044"
           style="fill:#6492a9;fill-opacity:1"><g
             id="g2042"
             style="fill:#6492a9;fill-opacity:1"><g
               clip-path="url(#clipPath14)"
               id="g2040"
               style="fill:#6492a9;fill-opacity:1"><path
                 d="m -228.613,318.539 70,-40.418 158.390344,91.449 158.839656,-91.699 70,40.418 -228.839656,132.109"
                 style="fill:#6492a9;fill-opacity:1;fill-rule:nonzero;stroke:none"
                 id="path2018" /><path
                 d="m 260.027,371.063 v 80.832 L 99.7773,544.414 v 184.531 l -70,40.41 V 503.992"
                 style="fill:#6492a9;fill-opacity:1;fill-rule:nonzero;stroke:none"
                 id="path2020" /><path
                 d="m 260.027,-106.648 v 80.8277 L 99.7773,66.6992 V 251.23 l -70,40.411 V 26.2813"
                 style="fill:#6492a9;fill-opacity:1;fill-rule:nonzero;stroke:none"
                 id="path2022" /><path
                 d="m 808.273,768.848 -70,-40.41 V 543.906 L 578.906,451.898 v -80.832 l 229.367,132.422"
                 style="fill:#6492a9;fill-opacity:1;fill-rule:nonzero;stroke:none"
                 id="path2024" /><path
                 d="m 609.883,318.539 70,-40.418 158.39,91.449 158.84,-91.699 69.997,40.418 -228.837,132.109"
                 style="fill:#6492a9;fill-opacity:1;fill-rule:nonzero;stroke:none"
                 id="path2026" /><path
                 d="m 808.273,291.133 -70,-40.41 V 66.1914 L 578.906,-25.8164 V -106.648 L 808.273,25.7734"
                 style="fill:#6492a9;fill-opacity:1;fill-rule:nonzero;stroke:none"
                 id="path2028" /><path
                 d="m 387.98,525.957 -70,-40.422 V 301.016 L 158.609,209.008 V 128.176 L 387.98,260.598"
                 style="fill:#6492a9;fill-opacity:1;fill-rule:nonzero;stroke:none"
                 id="path2030" /><path
                 d="m 189.59,75.6484 70,-40.4101 158.387,91.4417 158.839,-91.7034 70,40.4218 -228.839,132.1096"
                 style="fill:#6492a9;fill-opacity:1;fill-rule:nonzero;stroke:none"
                 id="path2032" /><path
                 d="m 678.23,128.172 v 80.832 l -160.25,92.519 v 184.528 l -70,40.41 V 261.102"
                 style="fill:#6492a9;fill-opacity:1;fill-rule:nonzero;stroke:none"
                 id="path2034" /><path
                 d="m 387.98,48.2422 -70,-40.41017 V -176.699 l -159.371,-92.008 v -80.832 l 229.371,132.422"
                 style="fill:#6492a9;fill-opacity:1;fill-rule:nonzero;stroke:none"
                 id="path2036" /><path
                 d="m 678.23,-349.543 v 80.832 l -160.25,92.52 V 8.33984 l -70,40.40626 V -216.613"
                 style="fill:#6492a9;fill-opacity:1;fill-rule:nonzero;stroke:none"
                 id="path2038" /></g></g></g></g></pattern></defs><sodipodi:namedview
     id="namedview4"
     pagecolor="#ffffff"
     bordercolor="#666666"
     borderopacity="1.0"
     inkscape:pageshadow="2"
     inkscape:pageopacity="0.0"
     inkscape:pagecheckerboard="0"
     showgrid="false"
     inkscape:zoom="0.45254834"
     inkscape:cx="1102.6446"
     inkscape:cy="296.10097"
     inkscape:window-width="1920"
     inkscape:window-height="1051"
     inkscape:window-x="0"
     inkscape:window-y="0"
     inkscape:window-maximized="1"
     inkscape:current-layer="g10"
     inkscape:snap-global="false" /><g
     id="g8"
     inkscape:groupmode="layer"
     inkscape:label="ink_ext_XXXXXX"
     transform="matrix(1.3333333,0,0,-1.3333333,0,1600)"><g
       id="g10"
       transform="scale(0.1)"><path
         d="M 0,0 H 16000 V 12000 H 0 Z"
         style="fill:none;fill-opacity:1;fill-rule:nonzero;stroke:none"
         id="path46" /><rect
         style="stroke:none;fill:url(#pattern3302)"
         transform="matrix(7.5000002,0,0,-7.5000002,0,12000)"
         width="559.45851"
         height="319.38397"
         x="792.00682"
         y="407.04903"
         id="rect3320" /></g></g></svg>
