<?xml version="1.0" encoding="UTF-8" standalone="no"?>
<svg
   version="1.0"
   width="1280.000000pt"
   height="640.000000pt"
   viewBox="0 0 1280.000000 640.000000"
   preserveAspectRatio="xMidYMid meet"
   id="svg5740"
   sodipodi:docname="wavy_pattern.svg"
   inkscape:version="1.1.2 (0a00cf5339, 2022-02-04)"
   xmlns:inkscape="http://www.inkscape.org/namespaces/inkscape"
   xmlns:sodipodi="http://sodipodi.sourceforge.net/DTD/sodipodi-0.dtd"
   xmlns="http://www.w3.org/2000/svg"
   xmlns:svg="http://www.w3.org/2000/svg">
  <defs
     id="defs5744">
    <linearGradient
       id="linearGradient44048"
       inkscape:swatch="solid">
      <stop
         style="stop-color:#6492a9;stop-opacity:1;"
         offset="0"
         id="stop44046" />
    </linearGradient>
    <pattern
       patternUnits="userSpaceOnUse"
       width="1706.8689"
       height="853.65933"
       patternTransform="translate(-0.17643229,-0.32599386)"
       id="pattern44144">
      <g
         id="g44142"
         transform="matrix(1.3333333,0,0,1.3333333,0.17643229,0.32599386)">
        <rect
           style="fill:#88a9ba;fill-opacity:1;stroke:none;stroke-width:2.62488;stop-color:#000000"
           id="rect17218"
           width="1280.1323"
           height="640.04449"
           x="-0.13232422"
           y="-0.24449539" />
        <g
           transform="matrix(0.1,0,0,-0.1,0,640)"
           fill="#000000"
           stroke="none"
           id="g5738"
           style="fill:#6492a9;fill-opacity:1">
          <path
             d="m 0,6289 v -109 h 39 c 179,0 395,-73 567,-191 102,-71 280,-256 271,-283 -2,-5 -45,-27 -95,-48 l -92,-38 -67,71 c -142,151 -318,242 -516,269 -43,5 -85,10 -93,10 -11,0 -14,-21 -14,-105 0,-118 -9,-107 95,-120 124,-16 273,-93 358,-184 26,-28 47,-54 47,-58 0,-7 -68,-69 -127,-117 -24,-18 -24,-18 -78,33 -64,60 -156,106 -238,119 l -57,9 v -107 -108 l 43,-10 c 61,-16 108,-51 136,-101 23,-41 23,-45 7,-77 l -16,-34 -85,6 -85,7 v -112 -111 h 39 c 179,0 395,-73 567,-191 102,-71 280,-256 271,-283 -2,-5 -45,-27 -95,-48 l -92,-38 -67,71 c -142,151 -318,242 -516,269 -43,5 -85,10 -93,10 -11,0 -14,-21 -14,-105 0,-118 -9,-107 95,-120 124,-16 273,-93 358,-184 26,-28 47,-54 47,-58 0,-7 -68,-69 -127,-117 -24,-18 -24,-18 -78,33 -64,60 -156,106 -237,119 l -58,9 v -107 -108 l 43,-10 c 61,-16 108,-51 136,-101 23,-41 23,-45 7,-77 l -16,-34 -85,6 -85,7 v -112 -111 h 39 c 179,0 395,-73 567,-191 102,-71 280,-256 271,-283 -2,-5 -45,-27 -95,-48 l -92,-38 -67,71 c -142,151 -318,242 -516,269 -43,5 -85,10 -93,10 -11,0 -14,-21 -14,-105 0,-118 -9,-107 95,-120 124,-16 273,-93 358,-184 26,-28 47,-54 47,-58 0,-7 -68,-69 -127,-117 -24,-18 -24,-18 -78,33 -64,60 -156,106 -237,119 l -58,9 v -107 -108 l 43,-10 c 61,-16 108,-51 136,-101 23,-41 23,-45 7,-77 l -16,-34 -85,6 -85,7 v -112 -111 h 39 c 179,0 395,-73 567,-191 102,-71 280,-256 271,-283 -2,-5 -45,-27 -95,-48 l -92,-38 -67,71 c -142,151 -318,242 -516,269 -43,5 -85,10 -93,10 -11,0 -14,-21 -14,-105 0,-118 -9,-107 95,-120 124,-16 273,-93 358,-184 26,-28 47,-54 47,-58 0,-7 -68,-69 -127,-117 -24,-18 -24,-18 -78,33 -64,60 -156,106 -237,119 l -58,9 v -107 -108 l 43,-10 c 61,-16 108,-51 136,-101 23,-41 23,-45 7,-77 l -16,-34 -85,6 -85,7 v -112 -111 h 39 c 179,0 395,-73 567,-191 102,-71 280,-256 271,-283 -2,-5 -45,-27 -95,-48 l -92,-38 -67,71 C 481,722 305,813 107,840 64,845 22,850 14,850 3,850 0,829 0,745 0,627 -9,638 95,625 219,609 368,532 453,441 c 26,-28 47,-54 47,-58 0,-7 -68,-69 -127,-117 -24,-18 -24,-18 -78,33 C 231,359 139,405 58,418 L 0,427 V 320 212 L 43,202 C 102,187 150,152 177,105 199,66 200,55 185,18 178,1 188,0 304,0 h 126 l 42,47 c 168,187 349,294 598,355 35,8 114,13 215,12 141,0 172,-3 260,-27 120,-32 276,-107 365,-175 36,-27 100,-86 144,-131 l 78,-81 h 124 c 68,0 124,2 124,5 0,2 -5,15 -11,28 -9,19 -7,32 9,63 73,142 280,147 359,9 22,-39 23,-50 8,-87 -7,-17 3,-18 119,-18 h 126 l 42,47 c 168,187 349,294 598,355 35,8 114,13 215,12 141,0 172,-3 260,-27 120,-32 276,-107 365,-175 36,-27 100,-86 144,-131 l 78,-81 h 124 c 68,0 124,2 124,5 0,2 -5,15 -11,28 -19,41 27,114 91,147 104,53 223,21 277,-75 22,-39 23,-50 8,-87 -7,-17 3,-18 119,-18 h 126 l 42,47 c 174,191 348,294 598,355 35,8 114,13 215,12 141,0 172,-3 260,-27 120,-32 276,-107 365,-175 36,-27 100,-86 144,-131 l 78,-81 h 125 c 115,0 125,1 118,17 -15,38 -14,49 8,88 53,93 173,128 272,78 44,-22 65,-43 87,-87 16,-31 18,-44 9,-63 -6,-13 -11,-26 -11,-28 0,-3 56,-5 125,-5 h 125 l 42,47 c 174,191 348,294 598,355 35,8 114,13 215,12 141,0 172,-3 260,-27 120,-32 276,-107 365,-175 36,-27 100,-86 144,-131 l 78,-81 h 124 c 68,0 124,2 124,5 0,2 -5,15 -11,28 -9,19 -7,32 9,63 73,142 280,147 359,9 22,-39 23,-50 8,-87 -7,-17 3,-18 119,-18 h 126 l 42,47 c 174,191 348,294 598,355 35,8 114,13 215,12 141,0 172,-3 260,-27 120,-32 276,-107 365,-175 36,-27 100,-86 144,-131 l 78,-81 h 125 c 115,0 125,1 118,17 -15,38 -14,49 8,88 27,47 75,82 134,97 l 43,10 v 108 107 l -57,-9 c -82,-13 -174,-59 -238,-119 -54,-51 -54,-51 -78,-33 -66,53 -127,110 -127,119 0,15 97,107 153,145 66,44 150,77 233,90 38,7 79,14 92,16 21,4 22,8 22,109 0,122 11,115 -133,90 -189,-33 -324,-103 -466,-243 l -95,-92 -90,38 c -49,22 -92,44 -93,49 -5,13 82,118 151,183 110,105 259,194 396,238 77,25 225,52 286,52 h 44 v 111 112 l -85,-7 -85,-6 -16,34 c -16,32 -16,36 7,77 28,50 75,85 136,101 l 43,10 v 108 107 l -57,-9 c -82,-13 -174,-59 -238,-119 -54,-51 -54,-51 -78,-33 -66,53 -127,110 -127,119 0,15 97,107 153,145 66,44 150,77 233,90 38,7 79,14 92,16 21,4 22,8 22,109 0,122 11,115 -133,90 -189,-33 -324,-103 -466,-243 l -95,-92 -90,38 c -49,22 -92,44 -93,49 -5,13 82,118 151,183 110,105 259,194 396,238 77,25 225,52 286,52 h 44 v 111 112 l -85,-7 -85,-6 -16,34 c -16,32 -16,36 7,77 28,50 75,85 136,101 l 43,10 v 108 107 l -57,-9 c -82,-13 -174,-59 -238,-119 -54,-51 -54,-51 -78,-33 -66,53 -127,110 -127,119 0,15 97,107 153,145 66,44 150,77 233,90 38,7 79,14 92,16 21,4 22,8 22,109 0,122 11,115 -133,90 -189,-33 -324,-103 -466,-243 l -95,-92 -90,38 c -49,22 -92,44 -93,49 -5,13 82,118 151,183 110,105 259,194 396,238 77,25 225,52 286,52 h 44 v 111 112 l -85,-7 -85,-6 -16,34 c -16,32 -16,36 7,77 28,50 75,85 136,101 l 43,10 v 108 107 l -57,-9 c -82,-13 -174,-59 -238,-119 -54,-51 -54,-51 -78,-33 -66,53 -127,110 -127,119 0,15 97,107 153,145 66,44 150,77 233,90 38,7 79,14 92,16 21,4 22,8 22,109 0,122 11,115 -133,90 -189,-33 -324,-103 -466,-243 l -95,-92 -90,38 c -49,22 -92,44 -93,49 -5,13 82,118 151,183 110,105 259,194 396,238 77,25 225,52 286,52 h 44 v 111 112 l -85,-7 -85,-6 -16,34 c -16,32 -16,36 7,77 28,50 75,85 136,101 l 43,10 v 108 107 l -57,-9 c -82,-13 -174,-59 -238,-119 -54,-51 -54,-51 -78,-33 -66,53 -127,110 -127,119 0,15 97,107 153,145 66,44 150,77 233,90 38,7 79,14 92,16 21,4 22,8 22,109 0,122 11,115 -133,90 -189,-33 -324,-103 -466,-243 l -95,-92 -90,38 c -49,22 -92,44 -93,49 -5,13 82,118 151,183 110,105 259,194 396,238 77,25 225,52 286,52 h 44 v 109 108 l -215,2 -215,1 16,-26 c 21,-31 18,-34 -76,-74 -41,-17 -80,-34 -86,-36 -6,-3 -42,27 -79,66 l -69,70 h -557 -557 l -66,-71 -67,-70 -87,37 c -48,20 -91,40 -96,45 -5,5 -2,18 7,33 l 16,24 h -429 -429 l 16,-24 c 20,-31 17,-34 -77,-74 -41,-17 -80,-34 -87,-36 -6,-3 -42,26 -79,65 l -67,71 h -557 -558 l -66,-71 -67,-70 -87,37 c -48,20 -91,40 -96,45 -5,5 -2,18 7,33 l 16,24 h -429 -429 l 16,-24 c 20,-31 17,-34 -77,-74 -41,-17 -80,-34 -87,-36 -6,-3 -42,26 -79,65 l -67,71 h -557 -558 l -66,-71 -67,-70 -87,37 c -48,20 -91,40 -96,45 -5,5 -2,18 7,33 l 16,24 h -429 -429 l 16,-24 c 20,-31 17,-34 -77,-74 -41,-17 -80,-34 -87,-36 -6,-3 -42,26 -79,65 l -67,71 h -557 -558 l -66,-71 -67,-70 -87,37 c -48,20 -91,40 -96,45 -5,5 -2,18 7,33 l 16,24 h -429 -429 l 16,-24 c 20,-31 17,-34 -77,-74 -41,-17 -80,-34 -87,-36 -6,-3 -42,26 -79,65 l -67,71 H 1280 722 l -66,-71 -67,-70 -87,37 c -48,20 -91,40 -96,45 -5,5 -2,19 8,33 l 16,26 -215,-1 -215,-2 z m 1480,72 c 87,-30 196,-99 253,-160 26,-28 47,-54 47,-58 0,-7 -68,-69 -127,-117 -24,-18 -24,-18 -76,31 -102,95 -188,128 -322,121 -102,-5 -191,-44 -270,-118 -62,-59 -52,-61 -149,27 -66,58 -66,61 6,129 72,70 178,129 283,159 77,22 272,14 355,-14 z m 2560,0 c 87,-30 196,-99 253,-160 26,-28 47,-54 47,-58 0,-7 -68,-69 -127,-117 -24,-18 -24,-18 -76,31 -102,95 -188,128 -322,121 -102,-5 -191,-44 -270,-118 -62,-59 -52,-61 -149,27 -66,58 -66,61 6,129 72,70 178,129 283,159 77,22 272,14 355,-14 z m 2560,0 c 87,-30 196,-99 253,-160 26,-28 47,-54 47,-58 0,-7 -68,-69 -127,-117 -24,-18 -24,-18 -76,31 -102,95 -188,128 -322,121 -102,-5 -191,-44 -270,-118 -62,-59 -52,-61 -149,27 -66,58 -66,61 6,129 72,70 178,129 283,159 77,22 272,14 355,-14 z m 2560,0 c 87,-30 196,-99 253,-160 26,-28 47,-54 47,-58 0,-7 -68,-69 -127,-117 -24,-18 -24,-18 -76,31 -102,95 -188,128 -322,121 -102,-5 -191,-44 -270,-118 -62,-59 -52,-61 -149,27 -66,58 -66,61 6,129 72,70 178,129 283,159 77,22 272,14 355,-14 z m 2560,0 c 36,-13 92,-39 125,-59 64,-38 175,-138 175,-156 0,-10 -60,-66 -127,-120 -24,-18 -24,-18 -76,31 -102,95 -188,128 -322,121 -102,-5 -191,-44 -270,-118 -62,-59 -52,-61 -149,27 -66,58 -66,61 6,129 72,70 178,129 283,159 77,22 272,14 355,-14 z M 2716,6169 c 154,-21 310,-84 450,-180 102,-71 280,-256 271,-283 -2,-5 -45,-27 -95,-48 l -92,-38 -67,71 c -150,159 -326,247 -542,271 -260,28 -513,-69 -704,-272 l -68,-71 -91,39 c -51,21 -94,44 -95,49 -5,13 82,118 151,183 235,223 556,325 882,279 z m 2560,0 c 154,-21 310,-84 450,-180 102,-71 280,-256 271,-283 -2,-5 -45,-27 -95,-48 l -92,-38 -67,71 c -192,203 -465,305 -720,270 -202,-28 -354,-103 -502,-249 l -95,-92 -90,38 c -49,22 -92,44 -93,49 -5,13 82,118 151,183 235,223 556,325 882,279 z m 2560,0 c 154,-21 310,-84 450,-180 102,-71 280,-256 271,-283 -2,-5 -45,-27 -95,-48 l -92,-38 -67,71 c -192,203 -465,305 -720,270 -202,-28 -354,-103 -502,-249 l -95,-92 -90,38 c -49,22 -92,44 -93,49 -5,13 82,118 151,183 235,223 556,325 882,279 z m 2560,0 c 154,-21 310,-84 450,-180 102,-71 280,-256 271,-283 -2,-5 -45,-27 -95,-48 l -92,-38 -67,71 c -192,203 -465,305 -720,270 -202,-28 -354,-103 -502,-249 l -95,-92 -90,38 c -49,22 -92,44 -93,49 -5,13 82,118 151,183 235,223 556,325 882,279 z M 1373,5944 c 46,-23 66,-44 89,-88 19,-38 20,-42 4,-70 l -16,-31 h -170 -170 l -16,31 c -16,30 -16,33 7,74 54,97 173,134 272,84 z m 2560,0 c 46,-23 66,-44 89,-88 19,-38 20,-42 4,-70 l -16,-31 h -170 -170 l -16,31 c -16,30 -16,33 7,74 54,97 173,134 272,84 z m 2560,0 c 46,-23 66,-44 89,-88 19,-38 20,-42 4,-70 l -16,-31 h -170 -170 l -16,31 c -16,30 -16,33 7,74 54,97 173,134 272,84 z m 2560,0 c 46,-23 66,-44 89,-88 19,-38 20,-42 4,-70 l -16,-31 h -170 -170 l -16,31 c -16,30 -16,33 7,74 54,97 173,134 272,84 z m 2560,0 c 46,-23 66,-44 89,-88 19,-38 20,-42 4,-70 l -16,-31 h -170 -170 l -16,31 c -16,30 -16,33 7,74 54,97 173,134 272,84 z M 2690,5738 c 75,-14 138,-40 214,-88 59,-37 156,-129 156,-147 0,-7 -68,-69 -127,-117 -24,-18 -24,-18 -78,33 -97,92 -233,138 -352,119 -82,-13 -174,-59 -238,-119 -54,-51 -54,-51 -78,-33 -66,53 -127,110 -127,119 0,18 102,111 167,153 68,43 166,78 258,91 63,9 114,6 205,-11 z m 2560,0 c 75,-14 138,-40 214,-88 59,-37 156,-129 156,-147 0,-7 -68,-69 -127,-117 -24,-18 -24,-18 -78,33 -97,92 -233,138 -352,119 -82,-13 -174,-59 -238,-119 -54,-51 -54,-51 -78,-33 -66,53 -127,110 -127,119 0,18 102,111 167,153 68,43 166,78 258,91 63,9 114,6 205,-11 z m 2560,0 c 75,-14 138,-40 214,-88 59,-37 156,-129 156,-147 0,-7 -68,-69 -127,-117 -24,-18 -24,-18 -78,33 -64,60 -156,106 -237,119 -120,19 -256,-27 -353,-119 -54,-51 -54,-51 -78,-33 -66,53 -127,110 -127,119 0,18 102,111 167,153 68,43 166,78 258,91 63,9 114,6 205,-11 z m 2560,0 c 75,-14 138,-40 214,-88 59,-37 156,-129 156,-147 0,-7 -68,-69 -127,-117 -24,-18 -24,-18 -78,33 -97,92 -233,138 -352,119 -82,-13 -174,-59 -238,-119 -54,-51 -54,-51 -78,-33 -66,53 -127,110 -127,119 0,18 102,111 167,153 68,43 166,78 258,91 63,9 114,6 205,-11 z M 1550,5505 c 183,-49 323,-130 466,-268 101,-96 153,-163 138,-176 -5,-5 -43,-23 -84,-41 -41,-17 -80,-34 -87,-36 -6,-3 -44,29 -85,71 -169,178 -379,269 -618,269 -239,0 -450,-91 -618,-268 l -73,-77 -87,37 c -48,20 -91,40 -96,45 -23,20 140,198 258,281 148,104 279,156 486,192 14,3 88,3 165,1 110,-3 161,-10 235,-30 z m 2560,0 c 183,-49 323,-130 466,-268 101,-96 153,-163 138,-176 -5,-5 -43,-23 -84,-41 -41,-17 -80,-34 -87,-36 -6,-3 -44,29 -85,71 -169,178 -379,269 -618,269 -239,0 -450,-91 -618,-268 l -73,-77 -87,37 c -48,20 -91,40 -96,45 -23,20 140,198 258,281 148,104 279,156 486,192 14,3 88,3 165,1 110,-3 161,-10 235,-30 z m 2560,0 c 183,-49 323,-130 466,-268 101,-96 153,-163 138,-176 -5,-5 -43,-23 -84,-41 -41,-17 -80,-34 -87,-36 -6,-3 -44,29 -85,71 -169,178 -379,269 -618,269 -239,0 -450,-91 -618,-268 l -73,-77 -87,37 c -48,20 -91,40 -96,45 -22,20 143,200 259,281 147,104 279,156 485,192 14,3 88,3 165,1 110,-3 161,-10 235,-30 z m 2560,0 c 183,-49 323,-130 466,-268 101,-96 153,-163 138,-176 -5,-5 -43,-23 -84,-41 -41,-17 -80,-34 -87,-36 -6,-3 -44,29 -85,71 -169,178 -379,269 -618,269 -239,0 -450,-91 -618,-268 l -73,-77 -87,37 c -48,20 -91,40 -96,45 -22,20 143,200 259,281 147,104 279,156 485,192 14,3 88,3 165,1 110,-3 161,-10 235,-30 z m 2560,0 c 183,-49 323,-130 466,-268 101,-96 153,-163 138,-176 -5,-5 -43,-23 -84,-41 -41,-17 -80,-34 -86,-36 -6,-3 -44,30 -85,72 -173,178 -380,268 -619,268 -239,0 -450,-91 -618,-268 l -73,-77 -87,37 c -48,20 -91,40 -96,45 -22,20 143,200 259,281 147,104 279,156 485,192 14,3 88,3 165,1 110,-3 161,-10 235,-30 z M 2659,5300 c 43,-21 71,-53 90,-99 10,-24 10,-34 -2,-57 l -14,-27 -173,-1 -173,-1 -15,31 c -14,30 -13,35 9,75 56,99 173,133 278,79 z m 2560,0 c 43,-21 71,-53 90,-99 10,-24 10,-34 -2,-57 l -14,-27 -173,-1 -173,-1 -15,31 c -14,30 -13,35 9,75 56,99 173,133 278,79 z m 2560,0 c 43,-21 71,-53 90,-99 10,-24 10,-34 -2,-57 l -14,-27 -173,-1 -173,-1 -15,31 c -14,30 -13,35 9,75 56,99 173,133 278,79 z m 2560,0 c 43,-21 71,-53 90,-99 10,-24 10,-34 -2,-57 l -14,-27 -173,-1 -173,-1 -15,31 c -14,30 -13,35 9,75 56,99 173,133 278,79 z M 1480,5081 c 87,-30 196,-99 253,-160 26,-28 47,-54 47,-58 0,-7 -68,-69 -127,-117 -24,-18 -24,-18 -76,31 -102,95 -188,128 -322,121 -102,-5 -191,-44 -270,-118 -62,-59 -52,-61 -149,27 -66,58 -66,61 6,129 72,70 178,129 283,159 77,22 272,14 355,-14 z m 2560,0 c 87,-30 196,-99 253,-160 26,-28 47,-54 47,-58 0,-7 -68,-69 -127,-117 -24,-18 -24,-18 -76,31 -102,95 -188,128 -322,121 -102,-5 -191,-44 -270,-118 -62,-59 -52,-61 -149,27 -66,58 -66,61 6,129 72,70 178,129 283,159 77,22 272,14 355,-14 z m 2560,0 c 87,-30 196,-99 253,-160 26,-28 47,-54 47,-58 0,-7 -68,-69 -127,-117 -24,-18 -24,-18 -76,31 -102,95 -188,128 -322,121 -102,-5 -191,-44 -270,-118 -62,-59 -52,-61 -149,27 -66,58 -66,61 6,129 72,70 178,129 283,159 77,22 272,14 355,-14 z m 2560,0 c 87,-30 196,-99 253,-160 26,-28 47,-54 47,-58 0,-7 -68,-69 -127,-117 -24,-18 -24,-18 -76,31 -102,95 -188,128 -322,121 -102,-5 -191,-44 -270,-118 -62,-59 -52,-61 -149,27 -66,58 -66,61 6,129 72,70 178,129 283,159 77,22 272,14 355,-14 z m 2560,0 c 36,-13 92,-39 125,-59 64,-38 175,-138 175,-156 0,-10 -60,-66 -127,-120 -24,-18 -24,-18 -76,31 -102,95 -188,128 -322,121 -102,-5 -191,-44 -270,-118 -62,-59 -52,-61 -149,27 -66,58 -66,61 6,129 72,70 178,129 283,159 77,22 272,14 355,-14 z M 2716,4889 c 154,-21 310,-84 450,-180 102,-71 280,-256 271,-283 -2,-5 -45,-27 -95,-48 l -92,-38 -67,71 c -150,159 -326,247 -542,271 -260,28 -513,-69 -704,-272 l -68,-71 -91,39 c -51,21 -94,44 -95,49 -5,13 82,118 151,183 235,223 556,325 882,279 z m 2560,0 c 154,-21 310,-84 450,-180 102,-71 280,-256 271,-283 -2,-5 -45,-27 -95,-48 l -92,-38 -67,71 c -192,203 -465,305 -720,270 -202,-28 -354,-103 -502,-249 l -95,-92 -90,38 c -49,22 -92,44 -93,49 -5,13 82,118 151,183 235,223 556,325 882,279 z m 2560,0 c 154,-21 310,-84 450,-180 102,-71 280,-256 271,-283 -2,-5 -45,-27 -95,-48 l -92,-38 -67,71 c -192,203 -465,305 -720,270 -202,-28 -354,-103 -502,-249 l -95,-92 -90,38 c -49,22 -92,44 -93,49 -5,13 82,118 151,183 235,223 556,325 882,279 z m 2560,0 c 154,-21 310,-84 450,-180 102,-71 280,-256 271,-283 -2,-5 -45,-27 -95,-48 l -92,-38 -67,71 c -192,203 -465,305 -720,270 -202,-28 -354,-103 -502,-249 l -95,-92 -90,38 c -49,22 -92,44 -93,49 -5,13 82,118 151,183 235,223 556,325 882,279 z M 1373,4664 c 46,-23 66,-44 89,-88 19,-38 20,-42 4,-70 l -16,-31 h -170 -170 l -16,31 c -16,30 -16,33 7,74 54,97 173,134 272,84 z m 2560,0 c 46,-23 66,-44 89,-88 19,-38 20,-42 4,-70 l -16,-31 h -170 -170 l -16,31 c -16,30 -16,33 7,74 54,97 173,134 272,84 z m 2560,0 c 46,-23 66,-44 89,-88 19,-38 20,-42 4,-70 l -16,-31 h -170 -170 l -16,31 c -16,30 -16,33 7,74 54,97 173,134 272,84 z m 2560,0 c 46,-23 66,-44 89,-88 19,-38 20,-42 4,-70 l -16,-31 h -170 -170 l -16,31 c -16,30 -16,33 7,74 54,97 173,134 272,84 z m 2560,0 c 46,-23 66,-44 89,-88 19,-38 20,-42 4,-70 l -16,-31 h -170 -170 l -16,31 c -16,30 -16,33 7,74 54,97 173,134 272,84 z M 2690,4458 c 75,-14 138,-40 214,-88 59,-37 156,-129 156,-147 0,-7 -68,-69 -127,-117 -24,-18 -24,-18 -78,33 -171,162 -419,162 -590,0 -54,-51 -54,-51 -78,-33 -66,53 -127,110 -127,119 0,18 102,111 167,153 68,43 166,78 258,91 63,9 114,6 205,-11 z m 2560,0 c 75,-14 138,-40 214,-88 59,-37 156,-129 156,-147 0,-7 -68,-69 -127,-117 -24,-18 -24,-18 -78,33 -171,162 -419,162 -590,0 -54,-51 -54,-51 -78,-33 -66,53 -127,110 -127,119 0,18 102,111 167,153 68,43 166,78 258,91 63,9 114,6 205,-11 z m 2560,0 c 75,-14 138,-40 214,-88 59,-37 156,-129 156,-147 0,-7 -68,-69 -127,-117 -24,-18 -24,-18 -78,33 -171,162 -419,162 -590,0 -54,-51 -54,-51 -78,-33 -66,53 -127,110 -127,119 0,18 102,111 167,153 68,43 166,78 258,91 63,9 114,6 205,-11 z m 2560,0 c 75,-14 138,-40 214,-88 59,-37 156,-129 156,-147 0,-7 -68,-69 -127,-117 -24,-18 -24,-18 -78,33 -171,162 -419,162 -590,0 -54,-51 -54,-51 -78,-33 -66,53 -127,110 -127,119 0,18 102,111 167,153 68,43 166,78 258,91 63,9 114,6 205,-11 z M 1550,4225 c 183,-49 323,-130 466,-268 101,-96 153,-163 138,-176 -5,-5 -43,-23 -84,-41 -41,-17 -80,-34 -87,-36 -6,-3 -44,29 -85,71 -169,178 -379,269 -618,269 -239,0 -450,-91 -618,-268 l -73,-77 -87,37 c -48,20 -91,40 -96,45 -23,20 140,198 258,281 148,104 279,156 486,192 14,3 88,3 165,1 110,-3 161,-10 235,-30 z m 2560,0 c 183,-49 323,-130 466,-268 101,-96 153,-163 138,-176 -5,-5 -43,-23 -84,-41 -41,-17 -80,-34 -87,-36 -6,-3 -44,29 -85,71 -169,178 -379,269 -618,269 -239,0 -450,-91 -618,-268 l -73,-77 -87,37 c -48,20 -91,40 -96,45 -23,20 140,198 258,281 148,104 279,156 486,192 14,3 88,3 165,1 110,-3 161,-10 235,-30 z m 2560,0 c 183,-49 323,-130 466,-268 101,-96 153,-163 138,-176 -5,-5 -43,-23 -84,-41 -41,-17 -80,-34 -87,-36 -6,-3 -44,29 -85,71 -169,178 -379,269 -618,269 -239,0 -450,-91 -618,-268 l -73,-77 -87,37 c -48,20 -91,40 -96,45 -22,20 143,200 259,281 147,104 279,156 485,192 14,3 88,3 165,1 110,-3 161,-10 235,-30 z m 2560,0 c 183,-49 323,-130 466,-268 101,-96 153,-163 138,-176 -5,-5 -43,-23 -84,-41 -41,-17 -80,-34 -87,-36 -6,-3 -44,29 -85,71 -169,178 -379,269 -618,269 -239,0 -450,-91 -618,-268 l -73,-77 -87,37 c -48,20 -91,40 -96,45 -22,20 143,200 259,281 147,104 279,156 485,192 14,3 88,3 165,1 110,-3 161,-10 235,-30 z m 2560,0 c 183,-49 323,-130 466,-268 101,-96 153,-163 138,-176 -5,-5 -43,-23 -84,-41 -41,-17 -80,-34 -86,-36 -6,-3 -44,30 -85,72 -173,178 -380,268 -619,268 -239,0 -450,-91 -618,-268 l -73,-77 -87,37 c -48,20 -91,40 -96,45 -22,20 143,200 259,281 147,104 279,156 485,192 14,3 88,3 165,1 110,-3 161,-10 235,-30 z M 2659,4020 c 43,-21 71,-53 90,-99 10,-24 10,-34 -2,-57 l -14,-27 -173,-1 -173,-1 -15,31 c -14,30 -13,35 9,75 56,99 173,133 278,79 z m 2560,0 c 43,-21 71,-53 90,-99 10,-24 10,-34 -2,-57 l -14,-27 -173,-1 -173,-1 -15,31 c -14,30 -13,35 9,75 56,99 173,133 278,79 z m 2560,0 c 43,-21 71,-53 90,-99 10,-24 10,-34 -2,-57 l -14,-27 -173,-1 -173,-1 -15,31 c -14,30 -13,35 9,75 56,99 173,133 278,79 z m 2560,0 c 43,-21 71,-53 90,-99 10,-24 10,-34 -2,-57 l -14,-27 -173,-1 -173,-1 -15,31 c -14,30 -13,35 9,75 56,99 173,133 278,79 z M 1480,3801 c 87,-30 196,-99 253,-160 26,-28 47,-54 47,-58 0,-7 -68,-69 -127,-117 -24,-18 -24,-18 -76,31 -102,95 -188,128 -322,121 -102,-5 -191,-44 -270,-118 -62,-59 -52,-61 -149,27 -66,58 -66,61 6,129 72,70 178,129 283,159 77,22 272,14 355,-14 z m 2560,0 c 87,-30 196,-99 253,-160 26,-28 47,-54 47,-58 0,-7 -68,-69 -127,-117 -24,-18 -24,-18 -76,31 -102,95 -188,128 -322,121 -102,-5 -191,-44 -270,-118 -62,-59 -52,-61 -149,27 -66,58 -66,61 6,129 72,70 178,129 283,159 77,22 272,14 355,-14 z m 2560,0 c 87,-30 196,-99 253,-160 26,-28 47,-54 47,-58 0,-7 -68,-69 -127,-117 -24,-18 -24,-18 -76,31 -102,95 -188,128 -322,121 -102,-5 -191,-44 -270,-118 -62,-59 -52,-61 -149,27 -66,58 -66,61 6,129 72,70 178,129 283,159 77,22 272,14 355,-14 z m 2560,0 c 87,-30 196,-99 253,-160 26,-28 47,-54 47,-58 0,-7 -68,-69 -127,-117 -24,-18 -24,-18 -76,31 -102,95 -188,128 -322,121 -102,-5 -191,-44 -270,-118 -62,-59 -52,-61 -149,27 -66,58 -66,61 6,129 72,70 178,129 283,159 77,22 272,14 355,-14 z m 2560,0 c 36,-13 92,-39 125,-59 64,-38 175,-138 175,-156 0,-10 -60,-66 -127,-120 -24,-18 -24,-18 -76,31 -102,95 -188,128 -322,121 -102,-5 -191,-44 -270,-118 -62,-59 -52,-61 -149,27 -66,58 -66,61 6,129 72,70 178,129 283,159 77,22 272,14 355,-14 z M 2716,3609 c 154,-21 310,-84 450,-180 102,-71 280,-256 271,-283 -2,-5 -45,-27 -95,-48 l -92,-38 -67,71 c -150,159 -326,247 -542,271 -260,28 -513,-69 -704,-272 l -68,-71 -91,39 c -51,21 -94,44 -95,49 -5,13 82,118 151,183 235,223 556,325 882,279 z m 2560,0 c 154,-21 310,-84 450,-180 102,-71 280,-256 271,-283 -2,-5 -45,-27 -95,-48 l -92,-38 -67,71 c -192,203 -465,305 -720,270 -202,-28 -354,-103 -502,-249 l -95,-92 -90,38 c -49,22 -92,44 -93,49 -5,13 82,118 151,183 235,223 556,325 882,279 z m 2560,0 c 154,-21 310,-84 450,-180 102,-71 280,-256 271,-283 -2,-5 -45,-27 -95,-48 l -92,-38 -67,71 c -192,203 -465,305 -720,270 -202,-28 -354,-103 -502,-249 l -95,-92 -90,38 c -49,22 -92,44 -93,49 -5,13 82,118 151,183 235,223 556,325 882,279 z m 2560,0 c 154,-21 310,-84 450,-180 102,-71 280,-256 271,-283 -2,-5 -45,-27 -95,-48 l -92,-38 -67,71 c -192,203 -465,305 -720,270 -202,-28 -354,-103 -502,-249 l -95,-92 -90,38 c -49,22 -92,44 -93,49 -5,13 82,118 151,183 235,223 556,325 882,279 z M 1373,3384 c 46,-23 66,-44 89,-88 19,-38 20,-42 4,-70 l -16,-31 h -170 -170 l -16,31 c -16,30 -16,33 7,74 54,97 173,134 272,84 z m 2560,0 c 46,-23 66,-44 89,-88 19,-38 20,-42 4,-70 l -16,-31 h -170 -170 l -16,31 c -16,30 -16,33 7,74 54,97 173,134 272,84 z m 2560,0 c 46,-23 66,-44 89,-88 19,-38 20,-42 4,-70 l -16,-31 h -170 -170 l -16,31 c -16,30 -16,33 7,74 54,97 173,134 272,84 z m 2560,0 c 46,-23 66,-44 89,-88 19,-38 20,-42 4,-70 l -16,-31 h -170 -170 l -16,31 c -16,30 -16,33 7,74 54,97 173,134 272,84 z m 2560,0 c 46,-23 66,-44 89,-88 19,-38 20,-42 4,-70 l -16,-31 h -170 -170 l -16,31 c -16,30 -16,33 7,74 54,97 173,134 272,84 z M 2690,3178 c 75,-14 138,-40 214,-88 59,-37 156,-129 156,-147 0,-7 -68,-69 -127,-117 -24,-18 -24,-18 -78,33 -171,162 -419,162 -590,0 -54,-51 -54,-51 -78,-33 -66,53 -127,110 -127,119 0,18 102,111 167,153 68,43 166,78 258,91 63,9 114,6 205,-11 z m 2560,0 c 75,-14 138,-40 214,-88 59,-37 156,-129 156,-147 0,-7 -68,-69 -127,-117 -24,-18 -24,-18 -78,33 -171,162 -419,162 -590,0 -54,-51 -54,-51 -78,-33 -66,53 -127,110 -127,119 0,18 102,111 167,153 68,43 166,78 258,91 63,9 114,6 205,-11 z m 2560,0 c 75,-14 138,-40 214,-88 59,-37 156,-129 156,-147 0,-7 -68,-69 -127,-117 -24,-18 -24,-18 -78,33 -171,162 -419,162 -590,0 -54,-51 -54,-51 -78,-33 -66,53 -127,110 -127,119 0,18 102,111 167,153 68,43 166,78 258,91 63,9 114,6 205,-11 z m 2560,0 c 75,-14 138,-40 214,-88 59,-37 156,-129 156,-147 0,-7 -68,-69 -127,-117 -24,-18 -24,-18 -78,33 -171,162 -419,162 -590,0 -54,-51 -54,-51 -78,-33 -66,53 -127,110 -127,119 0,18 102,111 167,153 68,43 166,78 258,91 63,9 114,6 205,-11 z M 1550,2945 c 183,-49 323,-130 466,-268 101,-96 153,-163 138,-176 -5,-5 -43,-23 -84,-41 -41,-17 -80,-34 -87,-36 -6,-3 -44,29 -85,71 -169,178 -379,269 -618,269 -239,0 -450,-91 -618,-268 l -73,-77 -87,37 c -48,20 -91,40 -96,45 -23,20 140,198 258,281 148,104 279,156 486,192 14,3 88,3 165,1 110,-3 161,-10 235,-30 z m 2560,0 c 183,-49 323,-130 466,-268 101,-96 153,-163 138,-176 -5,-5 -43,-23 -84,-41 -41,-17 -80,-34 -87,-36 -6,-3 -44,29 -85,71 -169,178 -379,269 -618,269 -239,0 -450,-91 -618,-268 l -73,-77 -87,37 c -48,20 -91,40 -96,45 -23,20 140,198 258,281 148,104 279,156 486,192 14,3 88,3 165,1 110,-3 161,-10 235,-30 z m 2560,0 c 183,-49 323,-130 466,-268 101,-96 153,-163 138,-176 -5,-5 -43,-23 -84,-41 -41,-17 -80,-34 -87,-36 -6,-3 -44,29 -85,71 -169,178 -379,269 -618,269 -239,0 -450,-91 -618,-268 l -73,-77 -87,37 c -48,20 -91,40 -96,45 -22,20 143,200 259,281 147,104 279,156 485,192 14,3 88,3 165,1 110,-3 161,-10 235,-30 z m 2560,0 c 183,-49 323,-130 466,-268 101,-96 153,-163 138,-176 -5,-5 -43,-23 -84,-41 -41,-17 -80,-34 -87,-36 -6,-3 -44,29 -85,71 -169,178 -379,269 -618,269 -239,0 -450,-91 -618,-268 l -73,-77 -87,37 c -48,20 -91,40 -96,45 -22,20 143,200 259,281 147,104 279,156 485,192 14,3 88,3 165,1 110,-3 161,-10 235,-30 z m 2560,0 c 183,-49 323,-130 466,-268 101,-96 153,-163 138,-176 -5,-5 -43,-23 -84,-41 -41,-17 -80,-34 -86,-36 -6,-3 -44,30 -85,72 -173,178 -380,268 -619,268 -239,0 -450,-91 -618,-268 l -73,-77 -87,37 c -48,20 -91,40 -96,45 -22,20 143,200 259,281 147,104 279,156 485,192 14,3 88,3 165,1 110,-3 161,-10 235,-30 z M 2659,2740 c 43,-21 71,-53 90,-99 10,-24 10,-34 -2,-57 l -14,-27 -173,-1 -173,-1 -15,31 c -14,30 -13,35 9,75 56,99 173,133 278,79 z m 2560,0 c 43,-21 71,-53 90,-99 10,-24 10,-34 -2,-57 l -14,-27 -173,-1 -173,-1 -15,31 c -14,30 -13,35 9,75 56,99 173,133 278,79 z m 2560,0 c 43,-21 71,-53 90,-99 10,-24 10,-34 -2,-57 l -14,-27 -173,-1 -173,-1 -15,31 c -14,30 -13,35 9,75 56,99 173,133 278,79 z m 2560,0 c 43,-21 71,-53 90,-99 10,-24 10,-34 -2,-57 l -14,-27 -173,-1 -173,-1 -15,31 c -14,30 -13,35 9,75 56,99 173,133 278,79 z M 1480,2521 c 87,-30 196,-99 253,-160 26,-28 47,-54 47,-58 0,-7 -68,-69 -127,-117 -24,-18 -24,-18 -76,31 -102,95 -188,128 -322,121 -102,-5 -191,-44 -270,-118 -62,-59 -52,-61 -149,27 -66,58 -66,61 6,129 72,70 178,129 283,159 77,22 272,14 355,-14 z m 2560,0 c 87,-30 196,-99 253,-160 26,-28 47,-54 47,-58 0,-7 -68,-69 -127,-117 -24,-18 -24,-18 -76,31 -102,95 -188,128 -322,121 -102,-5 -191,-44 -270,-118 -62,-59 -52,-61 -149,27 -66,58 -66,61 6,129 72,70 178,129 283,159 77,22 272,14 355,-14 z m 2560,0 c 87,-30 196,-99 253,-160 26,-28 47,-54 47,-58 0,-7 -68,-69 -127,-117 -24,-18 -24,-18 -76,31 -102,95 -188,128 -322,121 -102,-5 -191,-44 -270,-118 -62,-59 -52,-61 -149,27 -66,58 -66,61 6,129 72,70 178,129 283,159 77,22 272,14 355,-14 z m 2560,0 c 87,-30 196,-99 253,-160 26,-28 47,-54 47,-58 0,-7 -68,-69 -127,-117 -24,-18 -24,-18 -76,31 -102,95 -188,128 -322,121 -102,-5 -191,-44 -270,-118 -62,-59 -52,-61 -149,27 -66,58 -66,61 6,129 72,70 178,129 283,159 77,22 272,14 355,-14 z m 2560,0 c 36,-13 92,-39 125,-59 64,-38 175,-138 175,-156 0,-10 -60,-66 -127,-120 -24,-18 -24,-18 -76,31 -102,95 -188,128 -322,121 -102,-5 -191,-44 -270,-118 -62,-59 -52,-61 -149,27 -66,58 -66,61 6,129 72,70 178,129 283,159 77,22 272,14 355,-14 z M 2716,2329 c 154,-21 310,-84 450,-180 102,-71 280,-256 271,-283 -2,-5 -45,-27 -95,-48 l -92,-38 -67,71 c -150,159 -326,247 -542,271 -260,28 -513,-69 -704,-272 l -68,-71 -91,39 c -51,21 -94,44 -95,49 -5,13 82,118 151,183 235,223 556,325 882,279 z m 2560,0 c 154,-21 310,-84 450,-180 102,-71 280,-256 271,-283 -2,-5 -45,-27 -95,-48 l -92,-38 -67,71 c -192,203 -465,305 -720,270 -202,-28 -354,-103 -502,-249 l -95,-92 -90,38 c -49,22 -92,44 -93,49 -5,13 82,118 151,183 235,223 556,325 882,279 z m 2560,0 c 154,-21 310,-84 450,-180 102,-71 280,-256 271,-283 -2,-5 -45,-27 -95,-48 l -92,-38 -67,71 c -192,203 -465,305 -720,270 -202,-28 -354,-103 -502,-249 l -95,-92 -90,38 c -49,22 -92,44 -93,49 -5,13 82,118 151,183 235,223 556,325 882,279 z m 2560,0 c 154,-21 310,-84 450,-180 102,-71 280,-256 271,-283 -2,-5 -45,-27 -95,-48 l -92,-38 -67,71 c -192,203 -465,305 -720,270 -202,-28 -354,-103 -502,-249 l -95,-92 -90,38 c -49,22 -92,44 -93,49 -5,13 82,118 151,183 235,223 556,325 882,279 z M 1373,2104 c 46,-23 66,-44 89,-88 19,-38 20,-42 4,-70 l -16,-31 h -170 -170 l -16,31 c -16,30 -16,33 7,74 54,97 173,134 272,84 z m 2560,0 c 46,-23 66,-44 89,-88 19,-38 20,-42 4,-70 l -16,-31 h -170 -170 l -16,31 c -16,30 -16,33 7,74 54,97 173,134 272,84 z m 2560,0 c 46,-23 66,-44 89,-88 19,-38 20,-42 4,-70 l -16,-31 h -170 -170 l -16,31 c -16,30 -16,33 7,74 54,97 173,134 272,84 z m 2560,0 c 46,-23 66,-44 89,-88 19,-38 20,-42 4,-70 l -16,-31 h -170 -170 l -16,31 c -16,30 -16,33 7,74 54,97 173,134 272,84 z m 2560,0 c 46,-23 66,-44 89,-88 19,-38 20,-42 4,-70 l -16,-31 h -170 -170 l -16,31 c -16,30 -16,33 7,74 54,97 173,134 272,84 z M 2690,1898 c 75,-14 138,-40 214,-88 59,-37 156,-129 156,-147 0,-7 -68,-69 -127,-117 -24,-18 -24,-18 -78,33 -64,60 -156,106 -237,119 -120,19 -256,-27 -353,-119 -54,-51 -54,-51 -78,-33 -66,53 -127,110 -127,119 0,18 102,111 167,153 68,43 166,78 258,91 63,9 114,6 205,-11 z m 2560,0 c 75,-14 138,-40 214,-88 59,-37 156,-129 156,-147 0,-7 -68,-69 -127,-117 -24,-18 -24,-18 -78,33 -97,92 -233,138 -352,119 -82,-13 -174,-59 -238,-119 -54,-51 -54,-51 -78,-33 -66,53 -127,110 -127,119 0,18 102,111 167,153 68,43 166,78 258,91 63,9 114,6 205,-11 z m 2560,0 c 75,-14 138,-40 214,-88 59,-37 156,-129 156,-147 0,-7 -68,-69 -127,-117 -24,-18 -24,-18 -78,33 -64,60 -156,106 -237,119 -120,19 -256,-27 -353,-119 -54,-51 -54,-51 -78,-33 -66,53 -127,110 -127,119 0,18 102,111 167,153 68,43 166,78 258,91 63,9 114,6 205,-11 z m 2560,0 c 75,-14 138,-40 214,-88 59,-37 156,-129 156,-147 0,-7 -68,-69 -127,-117 -24,-18 -24,-18 -78,33 -97,92 -233,138 -352,119 -82,-13 -174,-59 -238,-119 -54,-51 -54,-51 -78,-33 -66,53 -127,110 -127,119 0,18 102,111 167,153 68,43 166,78 258,91 63,9 114,6 205,-11 z M 1550,1665 c 183,-49 323,-130 466,-268 101,-96 153,-163 138,-176 -5,-5 -43,-23 -84,-41 -41,-17 -80,-34 -87,-36 -6,-3 -44,29 -85,71 -169,178 -379,269 -618,269 -239,0 -450,-91 -618,-268 l -73,-77 -87,37 c -48,20 -91,40 -96,45 -23,20 140,198 258,281 148,104 279,156 486,192 14,3 88,3 165,1 110,-3 161,-10 235,-30 z m 2560,0 c 183,-49 323,-130 466,-268 101,-96 153,-163 138,-176 -5,-5 -43,-23 -84,-41 -41,-17 -80,-34 -87,-36 -6,-3 -44,29 -85,71 -169,178 -379,269 -618,269 -239,0 -450,-91 -618,-268 l -73,-77 -87,37 c -48,20 -91,40 -96,45 -23,20 140,198 258,281 148,104 279,156 486,192 14,3 88,3 165,1 110,-3 161,-10 235,-30 z m 2560,0 c 183,-49 323,-130 466,-268 101,-96 153,-163 138,-176 -5,-5 -43,-23 -84,-41 -41,-17 -80,-34 -87,-36 -6,-3 -44,29 -85,71 -169,178 -379,269 -618,269 -239,0 -450,-91 -618,-268 l -73,-77 -87,37 c -48,20 -91,40 -96,45 -22,20 143,200 259,281 147,104 279,156 485,192 14,3 88,3 165,1 110,-3 161,-10 235,-30 z m 2560,0 c 183,-49 323,-130 466,-268 101,-96 153,-163 138,-176 -5,-5 -43,-23 -84,-41 -41,-17 -80,-34 -87,-36 -6,-3 -44,29 -85,71 -169,178 -379,269 -618,269 -239,0 -450,-91 -618,-268 l -73,-77 -87,37 c -48,20 -91,40 -96,45 -22,20 143,200 259,281 147,104 279,156 485,192 14,3 88,3 165,1 110,-3 161,-10 235,-30 z m 2560,0 c 183,-49 323,-130 466,-268 101,-96 153,-163 138,-176 -5,-5 -43,-23 -84,-41 -41,-17 -80,-34 -86,-36 -6,-3 -44,30 -85,72 -173,178 -380,268 -619,268 -239,0 -450,-91 -618,-268 l -73,-77 -87,37 c -48,20 -91,40 -96,45 -22,20 143,200 259,281 147,104 279,156 485,192 14,3 88,3 165,1 110,-3 161,-10 235,-30 z M 2659,1460 c 43,-21 71,-53 90,-99 10,-24 10,-34 -2,-57 l -14,-27 -173,-1 -173,-1 -15,31 c -14,30 -13,35 9,75 56,99 173,133 278,79 z m 2560,0 c 43,-21 71,-53 90,-99 10,-24 10,-34 -2,-57 l -14,-27 -173,-1 -173,-1 -15,31 c -14,30 -13,35 9,75 56,99 173,133 278,79 z m 2560,0 c 43,-21 71,-53 90,-99 10,-24 10,-34 -2,-57 l -14,-27 -173,-1 -173,-1 -15,31 c -14,30 -13,35 9,75 56,99 173,133 278,79 z m 2560,0 c 43,-21 71,-53 90,-99 10,-24 10,-34 -2,-57 l -14,-27 -173,-1 -173,-1 -15,31 c -14,30 -13,35 9,75 56,99 173,133 278,79 z M 1480,1241 c 87,-30 196,-99 253,-160 26,-28 47,-54 47,-58 0,-7 -68,-69 -127,-117 -24,-18 -24,-18 -76,31 -102,95 -188,128 -322,121 -102,-5 -191,-44 -270,-118 -62,-59 -52,-61 -149,27 -66,58 -66,61 6,129 72,70 178,129 283,159 77,22 272,14 355,-14 z m 2560,0 c 87,-30 196,-99 253,-160 26,-28 47,-54 47,-58 0,-7 -68,-69 -127,-117 -24,-18 -24,-18 -76,31 -102,95 -188,128 -322,121 -102,-5 -191,-44 -270,-118 -62,-59 -52,-61 -149,27 -66,58 -66,61 6,129 72,70 178,129 283,159 77,22 272,14 355,-14 z m 2560,0 c 87,-30 196,-99 253,-160 26,-28 47,-54 47,-58 0,-7 -68,-69 -127,-117 -24,-18 -24,-18 -76,31 -102,95 -188,128 -322,121 -102,-5 -191,-44 -270,-118 -62,-59 -52,-61 -149,27 -66,58 -66,61 6,129 72,70 178,129 283,159 77,22 272,14 355,-14 z m 2560,0 c 87,-30 196,-99 253,-160 26,-28 47,-54 47,-58 0,-7 -68,-69 -127,-117 -24,-18 -24,-18 -76,31 -102,95 -188,128 -322,121 -102,-5 -191,-44 -270,-118 -62,-59 -52,-61 -149,27 -66,58 -66,61 6,129 72,70 178,129 283,159 77,22 272,14 355,-14 z m 2560,0 c 36,-13 92,-39 125,-59 64,-38 175,-138 175,-156 0,-10 -60,-66 -127,-120 -24,-18 -24,-18 -76,31 -102,95 -188,128 -322,121 -102,-5 -191,-44 -270,-118 -62,-59 -52,-61 -149,27 -66,58 -66,61 6,129 72,70 178,129 283,159 77,22 272,14 355,-14 z M 2716,1049 c 154,-21 310,-84 450,-180 102,-71 280,-256 271,-283 -2,-5 -45,-27 -95,-48 l -92,-38 -67,71 c -150,159 -326,247 -542,271 -260,28 -513,-69 -704,-272 l -68,-71 -91,39 c -51,21 -94,44 -95,49 -5,13 82,118 151,183 235,223 556,325 882,279 z m 2560,0 c 154,-21 310,-84 450,-180 102,-71 280,-256 271,-283 -2,-5 -45,-27 -95,-48 l -92,-38 -67,71 C 5551,774 5278,876 5023,841 4821,813 4669,738 4521,592 l -95,-92 -90,38 c -49,22 -92,44 -93,49 -5,13 82,118 151,183 235,223 556,325 882,279 z m 2560,0 c 154,-21 310,-84 450,-180 102,-71 280,-256 271,-283 -2,-5 -45,-27 -95,-48 l -92,-38 -67,71 C 8111,774 7838,876 7583,841 7381,813 7229,738 7081,592 l -95,-92 -90,38 c -49,22 -92,44 -93,49 -5,13 82,118 151,183 235,223 556,325 882,279 z m 2560,0 c 154,-21 310,-84 450,-180 102,-71 280,-256 271,-283 -2,-5 -45,-27 -95,-48 l -92,-38 -67,71 c -192,203 -465,305 -720,270 -202,-28 -354,-103 -502,-249 l -95,-92 -90,38 c -49,22 -92,44 -93,49 -5,13 82,118 151,183 235,223 556,325 882,279 z M 1373,824 c 46,-23 66,-44 89,-88 19,-38 20,-42 4,-70 l -16,-31 h -170 -170 l -16,31 c -16,30 -16,33 7,74 54,97 173,134 272,84 z m 2560,0 c 46,-23 66,-44 89,-88 19,-38 20,-42 4,-70 l -16,-31 h -170 -170 l -16,31 c -16,30 -16,33 7,74 54,97 173,134 272,84 z m 2560,0 c 46,-23 66,-44 89,-88 19,-38 20,-42 4,-70 l -16,-31 h -170 -170 l -16,31 c -16,30 -16,33 7,74 54,97 173,134 272,84 z m 2560,0 c 46,-23 66,-44 89,-88 19,-38 20,-42 4,-70 l -16,-31 h -170 -170 l -16,31 c -16,30 -16,33 7,74 54,97 173,134 272,84 z m 2560,0 c 46,-23 66,-44 89,-88 19,-38 20,-42 4,-70 l -16,-31 h -170 -170 l -16,31 c -16,30 -16,33 7,74 54,97 173,134 272,84 z M 2690,618 c 75,-14 138,-40 214,-88 59,-37 156,-129 156,-147 0,-7 -68,-69 -127,-117 -24,-18 -24,-18 -78,33 -97,92 -233,138 -352,119 -82,-13 -174,-59 -238,-119 -54,-51 -54,-51 -78,-33 -66,53 -127,110 -127,119 0,18 102,111 167,153 68,43 166,78 258,91 63,9 114,6 205,-11 z m 2560,0 c 75,-14 138,-40 214,-88 59,-37 156,-129 156,-147 0,-7 -68,-69 -127,-117 -24,-18 -24,-18 -78,33 -97,92 -233,138 -352,119 -82,-13 -174,-59 -238,-119 -54,-51 -54,-51 -78,-33 -66,53 -127,110 -127,119 0,18 102,111 167,153 68,43 166,78 258,91 63,9 114,6 205,-11 z m 2560,0 c 75,-14 138,-40 214,-88 59,-37 156,-129 156,-147 0,-7 -68,-69 -127,-117 -24,-18 -24,-18 -78,33 -171,162 -419,162 -590,0 -54,-51 -54,-51 -78,-33 -66,53 -127,110 -127,119 0,18 102,111 167,153 68,43 166,78 258,91 63,9 114,6 205,-11 z m 2560,0 c 75,-14 138,-40 214,-88 59,-37 156,-129 156,-147 0,-7 -68,-69 -127,-117 -24,-18 -24,-18 -78,33 -171,162 -419,162 -590,0 -54,-51 -54,-51 -78,-33 -66,53 -127,110 -127,119 0,18 102,111 167,153 68,43 166,78 258,91 63,9 114,6 205,-11 z"
             id="path5726"
             style="fill:#6492a9;fill-opacity:1" />
          <path
             d="M 1195,204 C 1041,181 908,131 789,49 L 725,5 1003,2 c 152,-1 402,-1 555,0 l 277,3 -64,44 c -86,59 -211,116 -298,135 -76,17 -226,28 -278,20 z"
             id="path5728"
             style="fill:#6492a9;fill-opacity:1" />
          <path
             d="M 3755,204 C 3601,181 3468,131 3349,49 L 3285,5 3563,2 c 152,-1 402,-1 555,0 l 277,3 -64,44 c -86,59 -211,116 -298,135 -76,17 -226,28 -278,20 z"
             id="path5730"
             style="fill:#6492a9;fill-opacity:1" />
          <path
             d="M 6315,204 C 6161,181 6028,131 5909,49 L 5845,5 6123,2 c 152,-1 402,-1 555,0 l 277,3 -64,44 c -86,59 -211,116 -298,135 -76,17 -226,28 -278,20 z"
             id="path5732"
             style="fill:#6492a9;fill-opacity:1" />
          <path
             d="M 8875,204 C 8721,181 8588,131 8469,49 L 8405,5 8683,2 c 152,-1 402,-1 555,0 l 277,3 -64,44 c -86,59 -211,116 -298,135 -76,17 -226,28 -278,20 z"
             id="path5734"
             style="fill:#6492a9;fill-opacity:1" />
          <path
             d="m 11435,204 c -154,-23 -287,-73 -406,-155 l -64,-44 278,-3 c 152,-1 402,-1 555,0 l 277,3 -64,44 c -86,59 -211,116 -298,135 -76,17 -226,28 -278,20 z"
             id="path5736"
             style="fill:#6492a9;fill-opacity:1" />
        </g>
      </g>
    </pattern>
  </defs>
  <sodipodi:namedview
     id="namedview5742"
     pagecolor="#ffffff"
     bordercolor="#666666"
     borderopacity="1.0"
     inkscape:pageshadow="2"
     inkscape:pageopacity="0.0"
     inkscape:pagecheckerboard="0"
     inkscape:document-units="pt"
     showgrid="false"
     inkscape:zoom="0.38496094"
     inkscape:cx="1002.6991"
     inkscape:cy="609.15271"
     inkscape:window-width="1483"
     inkscape:window-height="992"
     inkscape:window-x="2230"
     inkscape:window-y="16"
     inkscape:window-maximized="0"
     inkscape:current-layer="svg5740" />
  <metadata
     id="metadata5724">
Created by potrace 1.15, written by Peter Selinger 2001-2017
</metadata>
  <rect
     style="stroke:none;fill:url(#pattern44144)"
     transform="scale(0.75)"
     width="1706.8689"
     height="853.65933"
     x="-0.17643229"
     y="-0.32599386"
     id="rect44155" />
  <rect
     style="fill:url(#pattern44144);fill-opacity:1;stroke:none;stroke-width:2.62488;stop-color:#000000"
     id="rect44044"
     width="212.70688"
     height="180.72098"
     x="1397.087"
     y="41.544811" />
</svg>
